<?xml version="1.0" encoding="utf-8"?>
<svg id="master-artboard" viewBox="0 0 1400 978" version="1.0" xmlns="http://www.w3.org/2000/svg" x="0px" y="0px" enable-background="new 0 0 1400 978" width="1400px" height="978px"><rect id="ee-background" x="0" y="0" width="1400" height="978" style="fill: white; fill-opacity: 0; pointer-events: none;"/>
<path fill="#151D38" d="M613.1,117.8c1,1.4,0.9,3,0.9,4.6c0,6.7,0,13.4,0,20.1c0,0.8,0,1.6,0,2.4c0.1,3,0.3,3.2,3.4,3.3&#10;&#9;&#9;c9.4,0,18.9,0,28.3,0c1.4,0,2.9,0,4.3,0.1c1.1,0.1,1.7,0.8,1.8,1.9c0.1,1,0.1,1.9,0.1,2.9c0,7.7,0,15.3,0,23c0,0.8,0,1.6-0.1,2.4&#10;&#9;&#9;c-0.1,1.7-0.7,2.3-2.3,2.4c-1,0.1-1.9,0-2.9,0c-48,0-95.9,0-143.8,0c-1,0-1.9,0-2.9-0.1c-1.4-0.1-2-0.7-2.2-2&#10;&#9;&#9;c-0.1-0.8-0.1-1.6-0.1-2.4c0-8,0-16,0-24c0-1,0.1-1.9,0.2-2.9c0.1-0.7,0.6-1.1,1.3-1.2c1.3-0.1,2.5-0.2,3.8-0.2&#10;&#9;&#9;c8.6,0,17.3,0,25.9,0c1,0,1.9,0,2.9,0c3.6-0.1,3.7-0.2,3.7-3.9c0-6.9,0-13.7,0-20.6c0-2.4-0.4-2.7-2.8-2.8c-2.9-0.1-5.8,0-8.6,0&#10;&#9;&#9;c-0.8,0-1.6,0-2.4,0c-2.3-0.1-2.5-0.5-1.5-3.1C551.1,117.8,582.1,117.8,613.1,117.8z" transform="matrix(1, 0, 0, 1, 2.842170943040401e-14, 7.105427357601002e-15)"/><path fill="#151D38" d="M574.7,148.2c10.2,0,20.4,0,30.7,0c1.3,0,2.6,0,3.8-0.1c1.4-0.1,1.9-0.6,1.9-2.2c0-7.5,0.1-15,0-22.5&#10;&#9;&#9;c0-2-0.5-2.4-2.7-2.5c-0.8,0-1.6,0-2.4,0c-20.9,0-41.8,0-62.8,0c-1.1,0-2.2,0-3.3,0.1c-1.1,0.1-1.7,0.8-1.7,1.9c0,0.6,0,1.3,0,1.9&#10;&#9;&#9;c0,6.4,0,12.8,0,19.2c0,4.1,0.1,4.2,4.4,4.2C553.3,148.2,564,148.2,574.7,148.2z" transform="matrix(1, 0, 0, 1, 2.842170943040401e-14, 7.105427357601002e-15)"/><path fill="#EDCFE4" d="M537.1,151c-10.1,0-20.1,0-30.2,0c-1.3,0-2.6,0-3.8,0c-2.1,0.1-2.6,0.4-2.6,2.5c-0.1,7.2-0.1,14.4,0,21.6&#10;&#9;&#9;c0,2.4,0.4,2.8,2.7,2.9c1.1,0.1,2.2,0,3.4,0c20.3,0,40.6,0,60.9,0c1.1,0,2.2,0,3.4,0c2.1-0.1,2.6-0.5,2.6-2.6c0.1-7.3,0-14.7,0-22&#10;&#9;&#9;c0-1.8-0.5-2.3-2.2-2.4c-1.3-0.1-2.6,0-3.8,0C557.2,151,547.1,151,537.1,151z" transform="matrix(1, 0, 0, 1, 2.842170943040401e-14, 7.105427357601002e-15)" style="fill: rgb(255, 215, 64);"/><path fill="#ACDCF6" d="M612.8,151c-10.4,0-20.8,0-31.2,0c-5.6,0-5.3-0.3-5.3,5.1c0,5.6,0,11.2,0,16.8c0,5.5,0,5.2,5.3,5.2&#10;&#9;&#9;c20.8,0,41.6,0,62.3,0c0.6,0,1.3,0,1.9,0c2.7-0.1,3.1-0.4,3.2-3c0.1-2.6,0-5.1,0-7.7c0-4.3,0-8.6,0-12.9c0-3.3-0.1-3.3-3.6-3.4&#10;&#9;&#9;c-1.1,0-2.2,0-3.4,0C632.3,151,622.5,151,612.8,151z" transform="matrix(1, 0, 0, 1, 2.842170943040401e-14, 7.105427357601002e-15)" style="fill: rgb(204, 214, 218);"/><path fill="#151D38" d="M17.9,747.5c3.8-0.1,7.7-0.3,11.5-0.3c96.9,0,193.8,0,290.7,0c1.9,0,3.8,0.1,5.7,0.2c0.7,0,1.2,0.5,1.2,1.2&#10;&#9;&#9;c0,0.7-0.6,1.1-1.2,1.3c-0.6,0.1-1.3,0.2-1.9,0.2c-1.4,0-2.9,0-4.3,0c-97.7,0-195.4,0-293.1,0c-2.9,0-5.7,0.1-8.5-0.6&#10;&#9;&#9;C17.9,748.8,17.9,748.2,17.9,747.5z" transform="matrix(1, 0, 0, 1, 2.842170943040401e-14, 7.105427357601002e-15)"/><path fill="#151D38" d="M651.5,868.7c-87.5,0-175,0-262.6,0c-1.8,0-3.5,0-5.3-0.1c-0.7,0-1.2-0.5-1.2-1.2c0-0.9,0.4-1.6,1.3-1.6&#10;&#9;&#9;c1.3-0.1,2.6-0.1,3.8-0.1c12.5,0,25,0,37.4,0c4.4,0,4.4,0,4.4-4.5c0-4.2,0-4.2-4.2-4.2c-12.5,0-25,0-37.4,0c-1.4,0-2.9,0-4.3-0.1&#10;&#9;&#9;c-0.7-0.1-1-0.7-1-1.4c0-0.7,0.4-1.2,1.1-1.3c1.4-0.1,2.9-0.1,4.3-0.1c12,0,24,0,36,0c1.3,0,2.6,0,3.8-0.1c0.9,0,1.4-0.6,1.6-1.5&#10;&#9;&#9;c0.1-0.3,0.1-0.6,0.1-1c0-6.7,0.8-6.4-6-6.4c-12,0-24,0-36,0c-1.3,0-2.6,0-3.8-0.1c-0.7-0.1-1.2-0.5-1.2-1.3&#10;&#9;&#9;c-0.1-1,0.5-1.5,1.4-1.6c1.3-0.1,2.6-0.1,3.8-0.1c12,0,24,0,36,0c6.5,0,5.8,0.3,5.8-6.1c0-0.5-0.1-1-0.1-1.4&#10;&#9;&#9;c-0.1-0.7-0.5-1.2-1.2-1.2c-1.3-0.1-2.6-0.1-3.8-0.1c-12.3,0-24.6,0-37,0c-1.3,0-2.6,0-3.8-0.1c-0.8-0.1-1.1-0.6-1.1-1.3&#10;&#9;&#9;c0-0.7,0.3-1.3,1-1.4c1.3-0.1,2.6-0.1,3.8-0.1c12.3,0,24.6,0,37,0c1.3,0,2.6,0,3.8-0.1c0.7,0,1.2-0.5,1.2-1.2c0-2.1,0.1-4.1,0-6.2&#10;&#9;&#9;c0-0.7-0.7-1.1-1.3-1.1c-1.3-0.1-2.6-0.1-3.8-0.1c-12.2,0-24.3,0-36.5,0c-1.4,0-2.9-0.1-4.3-0.3c-0.7-0.1-0.9-0.8-0.8-1.5&#10;&#9;&#9;c0-0.6,0.4-1,0.9-1c1.4-0.1,2.9-0.2,4.3-0.2c12.3,0,24.6,0,37,0c4.8,0,4.8,0,4.8-4.7c0-0.8,0-1.6-0.1-2.4c-0.1-0.9-0.7-1.5-1.5-1.6&#10;&#9;&#9;c-1.4-0.1-2.9-0.1-4.3-0.1c-12.2,0-24.3,0-36.5,0c-1.3,0-2.5-0.1-3.8-0.3c-0.3-0.1-0.7-0.6-0.8-1c-0.2-0.7,0.2-1.4,0.8-1.5&#10;&#9;&#9;c1.2-0.2,2.5-0.2,3.8-0.2c12.2,0,24.3,0,36.5,0c6.5,0,5.9,0.4,5.9-6c0-0.2,0-0.3,0-0.5c-0.1-1.9-0.5-2.3-2.2-2.4&#10;&#9;&#9;c-1.3-0.1-2.6,0-3.8,0c-12.2,0-24.3,0-36.5,0c-1.3,0-2.6-0.1-3.8-0.2c-0.3,0-0.6-0.7-0.6-1.1c0-0.4,0.2-1,0.5-1.2&#10;&#9;&#9;c1-0.6,2.2-0.3,3.3-0.3c12.5,0,25,0,37.4,0c1.3,0,2.6,0,3.8,0c1.1,0,1.8-0.5,1.9-1.7c0-1.8,0-3.5,0-5.3c0-1.2-0.8-1.7-1.8-1.7&#10;&#9;&#9;c-1.3,0-2.6,0-3.8,0c-12,0-24,0-36,0c-1.4,0-2.9,0-4.3-0.2c-0.7-0.1-0.9-0.8-0.9-1.5c0-0.5,0.4-1,0.8-1c1.4-0.1,2.9-0.2,4.3-0.2&#10;&#9;&#9;c12.3,0,24.6,0,37,0c4.9,0,4.9,0,4.9-5.1c0-0.6,0-1.3-0.1-1.9c-0.1-1.1-0.7-1.8-1.8-1.9c-1.3-0.1-2.6-0.1-3.8-0.1c-12,0-24,0-36,0&#10;&#9;&#9;c-1.4,0-2.9-0.1-4.3-0.2c-0.7-0.1-1.1-0.7-1.1-1.3c0-0.7,0.3-1.3,1-1.4c1.3-0.1,2.6-0.1,3.8-0.1c12.2,0,24.3,0,36.5,0&#10;&#9;&#9;c1.3,0,2.6,0,3.8-0.1c1.1-0.1,1.8-0.7,1.8-1.8c0.1-8,0.9-6.9-6.3-6.9c-12,0-24,0-36,0c-1.3,0-2.6,0-3.8-0.2&#10;&#9;&#9;c-0.7-0.1-0.9-0.8-0.8-1.5c0-0.5,0.4-1,0.8-1c1.4-0.1,2.9-0.2,4.3-0.2c12.3,0,24.6,0,37,0c5.1,0,4.9,0.3,4.9-5&#10;&#9;&#9;c0-3.7-0.1-3.8-3.7-3.8c-12.5,0-25,0-37.4,0c-1.4,0-2.9,0-4.3-0.1c-0.9-0.1-1.4-0.6-1.4-1.6c0-0.7,0.6-1.2,1.2-1.2&#10;&#9;&#9;c1.4-0.1,2.9-0.1,4.3-0.1c11.8,0,23.7,0,35.5,0c6.4,0,5.8,0.3,5.8-6.1c0-0.2,0-0.3,0-0.5c-0.1-1.9-0.5-2.3-2.3-2.4&#10;&#9;&#9;c-1.3-0.1-2.6,0-3.8,0c-12.2,0-24.3,0-36.5,0c-1.3,0-2.5-0.1-3.8-0.3c-0.3,0-0.6-0.7-0.6-1.1c0-0.4,0.2-1,0.6-1.2&#10;&#9;&#9;c1-0.6,2.2-0.3,3.3-0.3c12.5,0,25,0,37.4,0c1.3,0,2.6,0,3.8,0c1.1,0,1.8-0.6,1.8-1.7c0-1.8,0-3.5,0-5.3c0-1.2-0.8-1.7-1.9-1.7&#10;&#9;&#9;c-1.3,0-2.6,0-3.8,0c-12,0-24,0-36,0c-1.3,0-2.6,0-3.8-0.1c-0.9-0.1-1.4-0.6-1.4-1.6c0-0.8,0.5-1.1,1.2-1.2&#10;&#9;&#9;c1.4-0.1,2.9-0.1,4.3-0.1c11.8,0,23.7,0,35.5,0c6.4,0,5.9,0.7,5.9-6.4c0-0.2,0-0.3,0-0.5c0-1.1-0.7-1.8-1.8-1.9&#10;&#9;&#9;c-1.3-0.1-2.6-0.1-3.8-0.1c-12.2,0-24.3,0-36.5,0c-1.3,0-2.6,0-3.8-0.1c-0.6-0.1-1.1-0.6-1.1-1.4c0-0.8,0.4-1.3,1-1.4&#10;&#9;&#9;c1.3-0.2,2.5-0.2,3.8-0.2c12.5,0,25,0,37.4,0c4.8,0,4.8,0,4.8-4.8c0-0.6,0-1.3,0-1.9c-0.1-1.7-0.5-2.1-2.4-2.2c-1.1,0-2.2,0-3.4,0&#10;&#9;&#9;c-12,0-24,0-36,0c-1.3,0-2.6,0-3.8-0.1c-0.9,0-1.5-0.5-1.4-1.5c0.1-1,0.7-1.3,1.6-1.4c1.3,0,2.6,0,3.8,0c11.8,0,23.7,0,35.5,0&#10;&#9;&#9;c1.3,0,2.6,0,3.8,0c1.8-0.1,2.2-0.4,2.2-2.4c0-7.1,0.8-6.3-6-6.3c-12,0-24,0-36,0c-1.3,0-2.6,0-3.8-0.1c-0.7-0.1-1.1-0.6-1.1-1.3&#10;&#9;&#9;c-0.1-0.7,0.3-1.3,1-1.4c1.4-0.1,2.9-0.1,4.3-0.1c12.5,0,25,0,37.4,0c4.2,0,4.2,0,4.2-4.3c0-0.8,0-1.6,0-2.4&#10;&#9;&#9;c-0.1-1.5-0.6-2.1-2-2.1c-1.3-0.1-2.6-0.1-3.8-0.1c-12.2,0-24.3,0-36.5,0c-1.3,0-2.6,0-3.8-0.2c-0.7-0.1-1-0.8-0.9-1.5&#10;&#9;&#9;c0.1-0.4,0.4-0.9,0.8-1.1c0.4-0.2,0.9-0.2,1.4-0.3c1.3,0,2.6,0,3.8,0c11.8,0,23.7,0,35.5,0c1.7,0,3.9,0.9,4.9-0.8&#10;&#9;&#9;c1.2-2.1,0.6-4.7,0.3-7c-0.1-0.7-0.8-1-1.5-1c-1.3,0-2.6-0.1-3.8-0.1c-12,0-24,0-36,0c-1.3,0-2.6,0-3.8,0c-0.9,0-1.6-0.3-1.6-1.3&#10;&#9;&#9;c-0.1-1,0.5-1.5,1.9-1.6c1.3,0,2.6,0,3.8,0c12.2,0,24.3,0,36.5,0c5.1,0,4.9,0.2,4.9-5c0-3.7,0-3.7-3.8-3.7c-12.5,0-25,0-37.4,0&#10;&#9;&#9;c-1.4,0-2.9,0-4.3-0.1c-0.9-0.1-1.4-0.6-1.4-1.6c0-0.7,0.5-1.2,1.2-1.2c1.4-0.1,2.9-0.1,4.3-0.1c12.3,0,24.6,0,37,0&#10;&#9;&#9;c4.5,0,4.5,0,4.5-4.6c0-4.4,0-4.4-4.6-4.4c-12.5,0-25,0-37.4,0c-1.4,0-2.9-0.1-4.3-0.3c-0.3,0-0.6-0.7-0.6-1.1c0-0.4,0.2-1,0.6-1.2&#10;&#9;&#9;c1-0.7,2.2-0.4,3.2-0.4c12.5,0,25,0,37.4,0c1.3,0,2.6,0,3.8-0.1c1.1,0,1.8-0.6,1.8-1.8c0-1.8,0-3.5,0-5.3c0-1.2-0.8-1.7-1.9-1.7&#10;&#9;&#9;c-1.3,0-2.6,0-3.8,0c-12,0-24,0-36,0c-1.4,0-2.9,0-4.3-0.2c-0.7-0.1-0.9-0.8-0.9-1.5c0-0.5,0.3-1,0.8-1c1.4-0.1,2.9-0.2,4.3-0.2&#10;&#9;&#9;c15.7,0,31.4,0,47,0c1.9,0,3.8,0.4,5.6-0.3c-0.5-2.3-2.7-2.8-4.3-4c-8.1-5.8-16.2-11.4-24.3-17.2c-1-0.7-2.6-1.2-2.3-2.8&#10;&#9;&#9;c0.4-1.8,2.2-1.4,3.6-1.6c14.1-2,28.2-4,42.3-6c4.3-0.6,4.4-0.6,4.8-5.3c0.8-7.9,2.6-15.5,6-22.6c8.8-18.2,22.9-30.1,42.2-35.8&#10;&#9;&#9;c3.9-1.2,3.9-1.2,3.6-5.1c-1.1-14-2.3-28.1-3.4-42.1c-0.1-1.4-0.8-3.1,0.6-4c1.8-1.1,2.9,0.8,4,1.7c8.6,6.7,17.1,13.5,25.6,20.2&#10;&#9;&#9;c0.5,0.4,1,0.8,1.5,1.2c1.6,1.6,3.4,2,5.7,1.4c4.2-1.2,8.5-1.2,12.9-0.9c3.1,0.2,6,0.8,8.9,1.7c2.2,0.6,2.5,0.5,3.3-1.5&#10;&#9;&#9;c1.6-3.8,3.2-7.7,4.8-11.5c0.4-0.9,0.8-1.7,1.4-2.5c0.2-0.3,0.8-0.4,1.3-0.3c0.8,0.1,1.1,0.8,0.9,1.4c-0.3,1.1-0.7,2.1-1.1,3.1&#10;&#9;&#9;c-1.5,3.7-3.1,7.4-4.6,11.1c-0.8,1.9-0.7,2,1.1,3c0.5,0.3,1.1,0.6,1.7,0.9c2.5,1.4,2.6,1.4,4.3-0.7c3.5-4.2,6.9-8.4,10.4-12.6&#10;&#9;&#9;c0.7-0.8,1.3-1.9,2.4-2.3c0.3-0.1,0.8-0.1,0.9,0c0.3,0.3,0.6,0.8,0.6,1.2c0,1-0.8,1.7-1.4,2.5c-3.3,4.1-6.7,8.2-10,12.3&#10;&#9;&#9;c-2.4,3-2.5,2.7,0.4,5.2c1.8,1.6,1.8,1.6,4.1,0.1c2.9-1.9,5.8-3.9,8.8-5.9c0.8-0.5,1.6-1,2.5-1.5c0.6-0.3,1.3-0.2,1.7,0.3&#10;&#9;&#9;c0.6,0.8,0.3,1.5-0.5,2c-2.2,1.6-4.5,3.1-6.7,4.6c-1.6,1.1-3.2,2.2-4.7,3.3c-0.8,0.5-0.9,1.3-0.3,2c0.3,0.4,0.6,0.8,0.9,1.2&#10;&#9;&#9;c5.4,7.1,8.3,15.1,8.7,24c0.1,2.5,1,4,3.1,5.4c6.3,4.1,12.4,8.5,18.6,12.7c0.7,0.5,1.3,0.9,2,1.3c0.8,0.5,1.5,0.5,1.9-0.4&#10;&#9;&#9;c0.5-1,1-2,1.5-3c6.3-14.2,12.6-28.3,18.9-42.5c0.3-0.6,0.5-1.2,0.8-1.8c0.9-1.7,0.9-3.2,0.1-5c-1.7-3.8-2.8-7.8-3.6-11.9&#10;&#9;&#9;c-5.9-31.6,13.7-61.2,43.7-68.7c19.4-4.8,37.1-0.6,52.7,11.8c0.8,0.6,1.5,1.2,2.2,1.9c0.7,0.6,1.5,0.7,2-0.1&#10;&#9;&#9;c2.5-3.8,6.4-5.7,10.4-7.4c1.9-0.8,3.9-1.6,5.7-2.5c1.6-0.8,3.1-1.7,4.5-2.8c3.1-2.6,3.6-6.1,1.3-9.4c-1-1.4-2.2-2.7-3.5-3.9&#10;&#9;&#9;c-1.7-1.5-3.5-2.8-5.2-4.2c-1.5-1.2-3-2.5-4.3-3.9c-5.8-6.3-4.7-13.7,2.6-18.2c1.8-1.1,3.7-1.9,5.6-2.8c1.9-0.9,3.8-1.6,5.7-2.5&#10;&#9;&#9;c3.1-1.5,5.9-3.2,6.9-6.9c0-0.1,0.1-0.3,0.2-0.4c0.4-0.6,0.9-0.9,1.6-0.7c0.7,0.3,0.8,0.9,0.7,1.6c-0.1,2.2-1.3,3.9-2.8,5.4&#10;&#9;&#9;c-1.5,1.5-3.3,2.6-5.2,3.4c-2.3,1-4.7,2-7,3.1c-1.9,0.9-3.8,1.8-5.4,3c-4.4,3.3-4.9,7.9-1.5,12.1c1.2,1.5,2.7,2.7,4.1,4&#10;&#9;&#9;c1.6,1.4,3.3,2.5,4.9,3.9c1.5,1.4,3.1,2.8,4.4,4.4c3.9,5.1,3.1,10.9-2,14.8c-2,1.6-4.4,2.6-6.7,3.6c-2.5,1.1-5,2.1-7.4,3.3&#10;&#9;&#9;c-2,1-3.8,2.3-5,4.4c-0.7,1.2-0.8,2.4,0.2,3.5c3.3,3.8,6,7.9,8.2,12.4c0.5,0.9,1.1,1.5,2.3,0.8c0.5-0.3,1.2-0.5,1.8-0.7&#10;&#9;&#9;c3-0.8,5.8,0.2,7.4,2.9c0.8,1.4,1.4,2.9,2,4.4c21.2,49.4,42.3,98.8,63.5,148.1c0.6,1.5,1.3,2.9,2.1,4.3c0.1,0.2,0.6,0.3,0.8,0.3&#10;&#9;&#9;c0.3,0,0.6-0.2,0.7-0.5c1-1.6,0.9-3.4,0.9-5.1c0.3-9-1.1-17.8-3.3-26.6c-2.9-11.3-7.2-22.2-11.4-33.1c-6.2-16-12.3-31.9-17.1-48.4&#10;&#9;&#9;c-4.6-15.9-8.2-31.9-9.9-48.3c-1.6-16.7-0.8-33.3,5.4-49.2c9.3-23.9,26.7-38.3,52.1-42.3c16.3-2.6,31.9,0.3,46.2,8.7&#10;&#9;&#9;c6.7,4,12.3,9.1,16.8,15.5c1.8,2.6,2.8,5.4,2.5,8.6c-1,8.6-10.3,13.1-17.7,8.6c-1.5-0.9-2.8-2.1-3.8-3.6&#10;&#9;&#9;c-5.1-7.1-12.2-11.1-20.4-13.4c-8.7-2.4-17.4-2.5-26,0c-11,3.2-19.3,9.8-24.8,19.8c-3.6,6.5-5.6,13.6-6.6,20.9&#10;&#9;&#9;c-1.8,12.2-0.5,24.2,1.5,36.3c3.9,22.8,10.8,44.7,19.1,66.2c4.7,12.1,9.5,24.1,13.5,36.4c3.2,9.8,5.6,19.7,6.8,29.9&#10;&#9;&#9;c0.7,5.6,0.5,11.2,0.4,16.8c0,1.1-0.1,2.2-0.1,3.4c-0.1,3.7-0.1,3.8,3.6,3.8c17.9,0,35.8,0,53.8,0c1.4,0,2.9,0,4.3,0.1&#10;&#9;&#9;c0.7,0.1,1.1,0.6,1.1,1.3c0,0.7-0.3,1.3-1,1.4c-1.4,0.1-2.9,0.1-4.3,0.1c-12.5,0-25,0-37.4,0c-4.2,0-4.2,0-4.2,4.2&#10;&#9;&#9;c0,1,0,1.9,0.1,2.9c0,0.9,0.6,1.5,1.5,1.6c1.3,0.1,2.6,0.1,3.8,0.1c12.3,0,24.6,0,37,0c1.3,0,2.6,0,3.8,0.2c0.6,0.1,1,0.8,0.8,1.5&#10;&#9;&#9;c-0.1,0.4-0.4,1-0.7,1.1c-1.4,0.2-2.9,0.2-4.3,0.2c-11.5,0-23,0-34.6,0c-1,0-1.9,0-2.9,0c-4.5,0.1-4.5,0.1-4.5,4.5&#10;&#9;&#9;c0,4.4,0,4.5,4.6,4.5c12.5,0,25,0,37.4,0c1.4,0,2.9-0.2,4.3,0.3c0.5,0.2,0.7,0.7,0.7,1.1c-0.1,0.4-0.3,1-0.7,1.1&#10;&#9;&#9;c-1.2,0.7-2.5,0.4-3.7,0.4c-12,0-24,0-36,0c-1.1,0-2.2,0-3.4,0c-3,0.1-3.1,0.2-3.2,3.4c0,5.9-0.4,5.4,5.5,5.4c12.3,0,24.6,0,37,0&#10;&#9;&#9;c1.3,0,2.6,0,3.8,0.2c0.6,0.1,0.8,0.8,0.8,1.6c0,0.6-0.4,1-0.8,1c-1.3,0.1-2.6,0.2-3.8,0.2c-12.5,0-25,0-37.4,0c-5,0-5-0.4-5,5&#10;&#9;&#9;c0,0.6,0,1.3,0,1.9c0,1.1,0.6,1.8,1.7,1.9c1.3,0.1,2.6,0.1,3.8,0.1c12.2,0,24.3,0,36.5,0c1.3,0,2.6,0,3.8,0.1&#10;&#9;&#9;c0.6,0.1,1.1,0.6,1.1,1.3c0.1,0.8-0.4,1.3-1,1.4c-1.3,0.2-2.5,0.2-3.8,0.2c-12.2,0-24.3,0-36.5,0c-6.4,0-5.8-0.2-5.7,6.2&#10;&#9;&#9;c0,2.3,0.4,2.7,2.9,2.7c12.8,0,25.6,0,38.4,0c1.4,0,2.9,0,4.3,0.1c0.7,0,1.2,0.3,1.3,1.1c0.1,0.8-0.4,1.6-1.2,1.7&#10;&#9;&#9;c-1.4,0.1-2.9,0.1-4.3,0.1c-12.3,0-24.6,0-37,0c-4.5,0-4.5,0-4.4,4.5c0,0.3,0,0.6,0,1c0.1,3.1,0.2,3.2,3.3,3.2c13,0,25.9,0,38.9,0&#10;&#9;&#9;c1.3,0,2.6,0,3.8,0.1c0.7,0.1,1,0.7,1,1.4c0,0.7-0.3,1.3-1.1,1.3c-1.3,0.1-2.6,0.1-3.8,0.1c-12.6,0-25.3,0-37.9,0&#10;&#9;&#9;c-4.2,0-4.2,0-4.3,4.2c0,0.5,0,1,0,1.4c0.1,2.8,0.3,3.1,2.9,3.2c1.1,0,2.2,0,3.4,0c11.8,0,23.7,0,35.5,0c1.3,0,2.6,0,3.8,0.1&#10;&#9;&#9;c0.9,0.1,1.4,0.6,1.4,1.6c-0.1,0.7-0.5,1.2-1.2,1.3c-1.3,0.1-2.6,0.1-3.8,0.1c-10.9,0-21.8,0-32.6,0c-1.3,0-2.6-0.1-3.8,0&#10;&#9;&#9;c-1.7,0.2-3.9-0.8-5,0.8c-1.3,2.1-0.6,4.6-0.3,7c0.1,0.7,0.8,1,1.4,1c1.3,0,2.6,0.1,3.8,0.1c12.2,0,24.3,0,36.5,0&#10;&#9;&#9;c1.4,0,2.9,0.1,4.3,0.3c0.6,0.1,0.7,0.7,0.7,1.1c0,0.4,0,0.9-0.6,1.2c-1.2,0.6-2.5,0.3-3.8,0.3c-12.3,0-24.6,0-37,0&#10;&#9;&#9;c-1.3,0-2.6,0-3.8,0c-1.1,0-1.8,0.7-1.8,1.8c0,7.9-1,6.9,6.3,6.9c11.8,0,23.7,0,35.5,0c1.3,0,2.6,0,3.8,0.1c1,0,1.4,0.7,1.3,1.6&#10;&#9;&#9;c0,0.7-0.5,1.2-1.2,1.2c-1.3,0.1-2.6,0.1-3.8,0.1c-12.2,0-24.3,0-36.5,0c-5.9,0-5.5-0.5-5.5,5.9c0,0.5,0,1,0.1,1.4&#10;&#9;&#9;c0.1,0.9,0.7,1.5,1.6,1.5c1.4,0.1,2.9,0.1,4.3,0.1c12,0,24,0,36,0c1.4,0,2.9,0.1,4.3,0.4c0.3,0,0.7,0.7,0.7,1.1&#10;&#9;&#9;c0,0.4-0.3,0.9-0.6,1.1c-0.3,0.3-0.9,0.4-1.3,0.4c-1.3,0.1-2.6,0-3.8,0c-11.7,0-23.4,0-35,0c-1.1,0-2.2,0-3.4,0&#10;&#9;&#9;c-2.2,0.1-2.6,0.4-2.6,2.5c-0.1,7.2-0.7,6.3,5.9,6.3c12,0,24,0,36,0c1.3,0,2.6,0,3.8,0.1c0.7,0,1.2,0.5,1.2,1.2&#10;&#9;&#9;c0,1-0.5,1.5-1.4,1.5c-1.3,0.1-2.6,0.1-3.8,0.1c-12.3,0-24.6,0-37,0c-4.9,0-4.8-0.2-4.8,4.7c0,0.6,0,1.3,0,1.9&#10;&#9;&#9;c0.1,1.7,0.5,2.1,2.4,2.2c1.3,0.1,2.6,0,3.8,0c11.7,0,23.4,0,35,0c1.3,0,2.6,0,3.8,0c1.3,0.1,1.9,0.6,1.9,1.6&#10;&#9;&#9;c-0.1,1-0.8,1.3-1.6,1.3c-1.3,0-2.6,0.1-3.8,0.1c-11.2,0-22.4,0-33.6,0c-1,0-1.9,0-2.9,0c-5.2,0-5.2,0-5.1,5.4c0,0.6,0,1.3,0.1,1.9&#10;&#9;&#9;c0.1,0.9,0.6,1.5,1.5,1.6c1.3,0.1,2.6,0.1,3.8,0.1c12.2,0,24.3,0,36.5,0c1.4,0,2.9,0.1,4.3,0.3c0.5,0.1,0.8,0.6,0.7,1.1&#10;&#9;&#9;c-0.1,0.4-0.3,0.9-0.6,1.2c-0.3,0.3-0.9,0.4-1.3,0.4c-1.3,0.1-2.6,0-3.8,0c-12,0-24,0-36,0c-1.3,0-2.6,0-3.8,0.2&#10;&#9;&#9;c-0.7,0.1-1.1,0.5-1.2,1.3c0,0.2-0.1,0.3-0.1,0.5c0,7.9-0.9,6.9,6.3,6.9c12,0,24,0,36,0c1.3,0,2.6,0,3.8,0.2c0.7,0.1,1,0.8,0.8,1.5&#10;&#9;&#9;c-0.1,0.4-0.4,1-0.7,1.1c-1.3,0.2-2.5,0.2-3.8,0.2c-12.5,0-25,0-37.4,0c-5.1,0-5.1-0.4-5,4.9c0,0.8,0,1.6,0.1,2.4&#10;&#9;&#9;c0.1,1,0.7,1.4,1.6,1.5c1.3,0.1,2.6,0.1,3.8,0.1c12,0,24,0,36,0c1.3,0,2.6,0,3.8,0c0.9,0,1.5,0.4,1.7,1.4c0.1,0.9-0.6,1.6-1.9,1.6&#10;&#9;&#9;c-1.3,0.1-2.6,0-3.8,0c-10.9,0-21.8,0-32.6,0c-1,0-1.9-0.1-2.9,0c-1.8,0.2-4.3-0.9-5.3,1c-1.1,1.9-0.6,4.3-0.2,6.6&#10;&#9;&#9;c0.1,0.7,0.7,1.1,1.3,1.1c1.3,0.1,2.6,0.1,3.8,0.1c12,0,24,0,36,0c1.4,0,2.9,0,4.3,0.1c0.7,0,1.2,0.4,1.2,1.2&#10;&#9;&#9;c0,0.9-0.5,1.5-1.4,1.6c-1.3,0.1-2.6,0.1-3.8,0.1c-12.3,0-24.6,0-37,0c-4.8,0-4.8,0-4.7,4.7c0,0.6,0,1.3,0,1.9&#10;&#9;&#9;c0.1,1.6,0.5,2,1.9,2.1c1.3,0.1,2.6,0,3.8,0c11.8,0,23.7,0,35.5,0c1.1,0,2.2,0,3.4,0c1.8,0.1,2.4,0.5,2.3,1.6&#10;&#9;&#9;c-0.1,1.4-1.2,1.3-2.1,1.3c-1.3,0-2.6,0-3.8,0c-11.8,0-23.7,0-35.5,0c-1.3,0-2.6,0-3.8,0.1c-0.9,0-1.5,0.5-1.6,1.4&#10;&#9;&#9;c0,0.2-0.1,0.3-0.1,0.5c-0.1,7.6-0.9,6.9,6.4,6.9c12,0,24,0,36,0c1.3,0,2.5,0.1,3.8,0.3c0.3,0.1,0.7,0.6,0.8,1.1&#10;&#9;&#9;c0.2,0.7-0.2,1.4-0.9,1.5c-1.2,0.2-2.5,0.2-3.8,0.2c-11.5,0-23,0-34.6,0c-1.1,0-2.2,0-3.4,0c-4.5,0.1-4.5,0.1-4.4,4.6&#10;&#9;&#9;c0,4.2,0,4.3,4.2,4.3c12.5,0,25,0,37.4,0c1.4,0,2.9,0,4.3,0.1c0.7,0.1,1.1,0.7,1,1.4c0,0.7-0.5,1.2-1.1,1.3&#10;&#9;&#9;c-1.3,0.1-2.6,0.1-3.8,0.1c-11.5,0-23,0-34.6,0c-1,0-1.9,0-2.9,0c-4.8,0-4.6-0.2-4.6,4.9c0,0.8,0,1.6,0.1,2.4&#10;&#9;&#9;c0.1,0.9,0.7,1.4,1.6,1.5c1.3,0.1,2.6,0.1,3.8,0.1c12.3,0,24.6,0,37,0c1.3,0,2.6,0,3.8,0.2c0.6,0.1,0.8,0.9,0.8,1.6&#10;&#9;&#9;c0,0.6-0.4,0.9-0.8,1c-0.4,0.1-0.9,0.2-1.4,0.2c-1.6,0-3.2,0-4.8,0C826.2,868.7,738.8,868.7,651.5,868.7z" transform="matrix(1, 0, 0, 1, 2.842170943040401e-14, 7.105427357601002e-15)"/><path fill="#CCD6DA" d="M697.4,751.6c-0.2,0-0.4,0-0.5,0c0-2.9,0-5.8,0-8.6c0-1.6,0.7-2.5,1.7-2.3c1.3,0.3,1.2,1.3,1.2,2.3&#10;&#9;&#9;c0.2,4.8,0.4,9.6,0.5,14.4c0.2,5.7-0.3,5.4,5.2,5c1.6-0.1,3.2-0.2,4.8-0.3c1.1-0.1,2.2-0.2,3.3-0.3c2.1-0.3,2.4-0.7,2.5-2.8&#10;&#9;&#9;c0-1.4,0-2.9,0-4.3c-0.1-3.7-0.1-7.4-0.2-11c0-0.8,0-1.6,0.2-2.4c0.2-0.6,0.7-1.1,1.4-1c0.4,0.1,1,0.5,1,0.8&#10;&#9;&#9;c0.2,1.4,0.3,2.9,0.4,4.3c0.1,4.5,0.2,9,0.4,13.4c0.1,1.5,0.7,2,2.1,1.8c5.2-0.8,10.4-1.9,15.5-3.2c28.9-7.6,53.7-22.1,74.3-43.6&#10;&#9;&#9;c13.1-13.7,23.1-29.4,31.4-46.3c3.3-6.8,6-13.8,8.2-21c4.1-13.5,5.4-27.3,4-41.3c-1-9.6-3.3-18.9-6.2-28&#10;&#9;&#9;c-3.8-12-8.5-23.8-13.1-35.5c-8.7-22.4-16.1-45.2-20.1-68.9c-1.6-9.6-2.8-19.3-2.3-29.1c0.5-9.5,2.2-18.7,6.3-27.4&#10;&#9;&#9;c5.6-11.7,14.5-19.7,27-23.6c9.1-2.8,18.3-2.9,27.5-0.5c9.3,2.4,17.2,6.7,23,14.6c0.9,1.2,1.9,2.2,3.1,2.9c3.3,2,7.4,1.7,10.3-0.7&#10;&#9;&#9;c2.9-2.5,3.9-6.5,2.3-10c-0.5-1.2-1.2-2.2-2-3.3c-2.1-2.8-4.4-5.5-7.1-7.8c-8.2-7.1-17.6-11.4-28.2-13.7c-4.7-1-9.5-1.4-14.3-1.4&#10;&#9;&#9;c-1.8,0-2.3,0.5-2.2,2.3c0.1,1.8,0.3,3.5,0.4,5.3c0,0.8,0.1,1.6,0,2.4c-0.1,0.4-0.3,0.9-0.9,1c-0.8,0.1-1.3-0.2-1.5-0.8&#10;&#9;&#9;c-0.3-0.9-0.4-1.9-0.5-2.8c-0.2-1.6-0.2-3.2-0.5-4.8c-0.3-1.8-0.7-2.2-2.5-2.1c-3.5,0.3-6.9,1.1-10.3,2c-2.9,0.8-3,1.1-2,4&#10;&#9;&#9;c0.6,2,1.3,3.9,1.8,5.9c0.1,0.5-0.2,1.3-1,1.3c-0.4,0-1-0.1-1.2-0.4c-0.5-0.6-0.8-1.4-1.1-2.1c-0.6-1.6-1.2-3.3-1.8-5&#10;&#9;&#9;c-0.5-1.2-1.2-1.5-2.3-1c-2.6,1.2-5.2,2.4-7.7,3.9c-5.9,3.5-5.1,2.7-1.8,7.6c0.7,1.1,1.5,2.1,2.2,3.2c0.3,0.4,0.5,0.9,0.5,1.3&#10;&#9;&#9;c0,0.4-0.1,1-0.4,1.2c-0.3,0.2-0.9,0.2-1.3,0.1c-0.8-0.2-1.2-1-1.7-1.6c-1.3-1.8-2.6-3.6-4-5.4c-0.6-0.8-1.3-0.8-2.1-0.2&#10;&#9;&#9;c-1,0.8-1.9,1.7-2.8,2.6c-5.4,5.3-9.6,11.5-12.8,18.4c-4.7,10.1-7,20.9-7.7,32c-0.9,13.5,0.8,26.8,3.3,40.1&#10;&#9;&#9;c3.7,19.4,9.3,38.2,16.2,56.6c4.8,12.9,9.8,25.7,14.6,38.6c3.8,10.4,6.7,21,7.7,32.1c0.4,4.5,0.5,8.9,0.1,13.4&#10;&#9;&#9;c-0.3,3.1-1.8,5.5-5,6.4c-3.1,0.9-5.6-0.3-7.5-2.9c-0.9-1.3-1.9-2.6-2.8-3.9c-27.7-38.2-55.4-76.4-83.2-114.6&#10;&#9;&#9;c-0.8-1.2-1.7-2.4-2.6-3.4c-1.4-1.5-2.7-1.7-4.3-0.9c-1.8,0.9-2.6,2.4-2.1,4.3c0.4,1.4,0.9,2.7,1.4,4.1&#10;&#9;&#9;c10.4,26.2,20.7,52.3,31.1,78.5c3.4,8.5,6.7,16.9,10,25.4c0.9,2.3,0.6,2.8-1.5,3.6c-0.6,0.2-1.2,0.4-1.8,0.6&#10;&#9;&#9;c-27.5,9.8-43.6,36.7-41,63.7c0.3,3.5,1,7,1.8,10.4c0.3,1,0.8,2.2-0.6,3c-0.9,0.5-1.6-0.3-2.2-2.5c-2.4-8.8-3-17.7-1.3-26.6&#10;&#9;&#9;c4.3-23.3,17.3-39.8,39-49.3c1.2-0.5,2.4-1,3.5-1.5c0.9-0.4,1.1-1,0.8-1.9c-0.8-1.9-1.5-3.9-2.3-5.8c-3.3-8.3-6.6-16.6-9.8-25&#10;&#9;&#9;c-0.8-2-2-2.9-4.2-3.2c-3.8-0.5-7.6-0.8-11.5-0.4c-7,0.7-13.9,2.3-20.4,4.9c-8.7,3.4-16.7,8.1-24.4,13.2c-10.3,6.8-20.9,7.2-31.6,1&#10;&#9;&#9;c-2.5-1.5-2.8-1.6-4.4,1.1c-0.5,0.8-1,1.7-1.4,2.5c-7.7,13.3-15.4,26.6-23,39.9c-3.5,6.1-7,12.2-10.6,18.3&#10;&#9;&#9;c-0.6,1.1-1.3,2.2-2.1,3.2c-0.4,0.6-1.2,0.5-1.8,0.2c-0.7-0.3-0.8-0.9-0.5-1.6c0.7-1.3,1.4-2.5,2.1-3.8&#10;&#9;&#9;c23.2-40.2,46.4-80.3,69.6-120.5c0.7-1.2,1.4-2.5,2.1-3.8c0.5-1,0.8-2.1,0.8-3.2c-0.1-1.4-0.6-2.5-1.8-3.2&#10;&#9;&#9;c-1.3-0.7-2.6-0.3-3.5,0.6c-1.3,1.2-2.4,2.5-3.5,3.9c-30.9,38.6-61.7,77.2-92.5,115.9c-0.7,0.9-1.4,1.8-2.1,2.6&#10;&#9;&#9;c-0.6,0.7-1.3,1.6-2.4,0.9c-0.7-0.4-0.7-1.5,0.1-2.5c1-1.3,2-2.5,3-3.8c17.5-21.9,34.9-43.8,52.4-65.6c1.6-2,2.8-4.2,3.4-6.8&#10;&#9;&#9;c2.6-11.7,5-23.5,7.9-35.1c1.1-4.2,0.6-7.2-2.5-10.3c-2-2-3.4-4.6-5.1-7c-0.6-0.9-1.3-0.9-1.8,0c-0.5,1-1,2-1.4,3&#10;&#9;&#9;c-2.7,6.1-5.5,12.3-8.2,18.4c-3.2,7.2-6.4,14.3-9.5,21.5c-2.5,5.6-2.9,4.4,2.5,8.1c1.8,1.3,3.7,2.5,5.5,3.8&#10;&#9;&#9;c0.5,0.4,0.9,0.9,1.3,1.4c0.1,0.2,0.1,0.7,0,0.9c-0.3,0.3-0.7,0.8-1.1,0.8c-1.5-0.1-2.6-1.2-3.7-2c-11.1-7.6-22.2-15.2-33.2-22.8&#10;&#9;&#9;c-0.7-0.5-1.3-0.9-2-1.4c-1.2-0.8-1.7-1.8-1.7-3.2c-0.1-2.6-0.3-5.1-0.6-7.6c-2.7-17.5-18.8-32.3-36.4-33.6&#10;&#9;&#9;c-4.8-0.3-9.6-0.1-14.2,1.4c-1.4,0.5-2.5,0.3-3.5-0.6c-0.7-0.6-1.5-1.2-2.3-1.8c-7.6-6.1-15.3-12.1-22.9-18.2&#10;&#9;&#9;c-0.9-0.7-1.8-1.4-2.7-2c-0.2-0.2-0.6-0.2-0.9-0.1c-0.6,0.1-0.6,0.7-0.6,1.1c0.3,3.7,0.6,7.3,0.9,11c0.8,9.9,1.6,19.8,2.5,29.6&#10;&#9;&#9;c0.5,5.5,0.9,5.2-4.6,6.7c-19.7,5.4-33.8,17.5-42.2,36.1c-3.3,7.4-4.9,15.2-5.3,23.3c-0.1,2.9-0.4,3.6-3.4,4&#10;&#9;&#9;c-10.9,1.4-21.8,3.1-32.8,4.6c-3.3,0.5-6.6,1-9.9,1.5c-0.7,0.1-0.9,1-0.4,1.4c1,0.8,2,1.6,3.1,2.3&#10;&#9;&#9;c57.3,40.3,114.6,80.6,171.9,120.8c15.2,10.6,31.6,18.8,49.2,24.5c11.6,3.8,23.5,6.2,35.6,7.6c2.1,0.2,2.6-0.1,2.5-2.3&#10;&#9;&#9;c-0.1-4.6-0.2-9.3-0.4-13.9c0-1.3-0.3-2.6,0.3-3.8c0.2-0.3,0.7-0.6,1.1-0.7c0.4-0.1,0.9,0.2,1.1,0.7c0.6,1.2,0.5,2.5,0.5,3.8&#10;&#9;&#9;c0.2,4.8,0.2,9.6,0.4,14.4c0.1,1.8,0.4,2.2,2.3,2.4c3.7,0.2,7.3,0.4,11,0.5c2.1,0,2.6-0.5,2.6-2.5&#10;&#9;&#9;C697.4,757.3,697.4,754.4,697.4,751.6z" transform="matrix(1, 0, 0, 1, 2.842170943040401e-14, 7.105427357601002e-15)"/><path fill="#EDCFE4" d="M651.6,865.7c70.9,0,141.7,0,212.6,0c7.3,0,6.4,0.9,6.4-6.3c0-73.9,0-147.8,0-221.7c0-1.3,0-2.6,0-3.8&#10;&#9;&#9;c-0.1-2-0.4-2.3-2.2-2.4c-3-0.1-6.1-0.1-9.1,0c-1.9,0-2.1,0.2-2.5,2.1c-1.2,5.6-2.4,11.2-4.2,16.7c-5.5,16.5-13.7,31.7-23.5,46&#10;&#9;&#9;c-12.4,18-27.9,32.9-46.5,44.5c-23,14.3-48,22.2-75,24.3c-18.7,1.4-37.1-0.2-55.2-4.6c-23.1-5.5-44.3-15.3-63.8-29&#10;&#9;&#9;c-35.3-24.8-70.7-49.7-106-74.5c-1-0.7-2.1-1.5-3.1-2.2c-1.3-0.9-2-0.7-2.6,0.7c-1.8,4.1-3.4,8.3-5.2,12.4c-0.5,1-0.6,2.7-2.4,2.5&#10;&#9;&#9;c-1.1-0.1-1.1-1.4-0.1-3.7c1.8-4.3,3.6-8.6,5.3-12.8c0.7-1.7,0.5-2-1-3.2c-0.4-0.3-0.8-0.6-1.2-0.8c-0.9-0.6-1.8-0.6-2.5,0.3&#10;&#9;&#9;c-1.3,1.6-2.7,3.2-4,4.8c-3.3,3.9-6.5,7.9-9.8,11.8c-0.9,1.1-1.8,1.2-2.4,0.4c-0.6-0.8-0.3-1.5,0.2-2.1c0.6-0.8,1.2-1.5,1.8-2.2&#10;&#9;&#9;c3.4-4.1,6.7-8.1,10.1-12.2c0.7-0.9,1.4-1.8,2-2.7c0.4-0.5,0.1-1-0.2-1.3c-1-0.8-2.1-1.5-3-2.3c-1.3-1.1-2.5-1-3.9,0&#10;&#9;&#9;c-3.1,2.2-6.3,4.3-9.5,6.5c-0.9,0.6-1.9,1.2-2.9,1.7c-0.6,0.3-1.3,0-1.6-0.6c-0.2-0.3-0.1-1,0.1-1.3c0.8-0.8,1.7-1.5,2.6-2.1&#10;&#9;&#9;c2.8-1.9,5.6-3.7,8.3-5.6c2.1-1.4,2.1-1.8-0.1-3.4c-1.5-1.1-3.1-2.2-4.7-3.3c-2.2-1.5-4.4-3.5-6.8-4.3c-2.3-0.8-5.1-0.3-7.6-0.3&#10;&#9;&#9;c-6.5,0-5.9-0.7-5.9,5.9c0,74.2,0,148.4,0,222.7c0,1.3,0,2.6,0,3.8c0,1.1,0.5,1.8,1.7,1.8c1.6,0,3.2,0.1,4.8,0.1&#10;&#9;&#9;C509.9,865.7,580.7,865.7,651.6,865.7z" transform="matrix(1, 0, 0, 1, 2.842170943040401e-14, 7.105427357601002e-15)" style="fill: rgb(255, 215, 64);"/><path fill="#FFFFFF" d="M748.3,576.8c1.1,0.1,3,0.3,4.9,0.4c0.5,0,0.9-0.5,0.8-1c-0.2-0.9-0.5-1.8-0.9-2.7&#10;&#9;&#9;c-4.5-11.3-8.9-22.6-13.4-33.9c-0.3-0.7-0.6-1.5-1-2.2c-0.3-0.6-0.9-0.9-1.6-0.5c-0.6,0.3-1.1,0.7-1.6,1.1&#10;&#9;&#9;c-12.7,9.3-26.9,12.9-42.5,11.5c-0.5,0-1-0.1-1.4-0.2c-1.3-0.3-2.1,0.4-2.7,1.4c-0.4,0.7-0.8,1.4-1.2,2.1&#10;&#9;&#9;c-7.4,12.7-14.7,25.4-22.1,38.2c-0.5,0.8-0.9,1.7-1.4,2.5c-0.3,0.6-0.2,1.2,0.4,1.7c0.6,0.5,1.2,1,1.9,1.4c8.3,4.8,16.7,5,25.2,0.8&#10;&#9;&#9;c1.9-0.9,3.5-2.2,5.3-3.3c8.1-5.2,16.5-9.8,25.5-13C730.7,578.2,739,576.6,748.3,576.8z" transform="matrix(1, 0, 0, 1, 2.842170943040401e-14, 7.105427357601002e-15)"/><path fill="#CCD6DA" d="M759.4,466.6c-2.4-0.1-3.8,1.6-3.2,4c0.1,0.3,0.2,0.6,0.3,0.9c2.5,7.4,3.4,14.9,3,22.7&#10;&#9;&#9;c-0.1,1.3,0.1,2.5,0.3,3.8c2,12.5,4,24.9,5.9,37.4c0.4,2.8,1.3,5.1,3,7.4c19,26.1,37.9,52.2,56.9,78.3c0.8,1.1,1.1,3,3.1,2.9&#10;&#9;&#9;c0.1-1.5-0.7-2.7-1.3-4c-21.2-49.5-42.4-98.9-63.6-148.4c-0.4-1-0.9-2-1.4-3C761.8,467.3,760.7,466.8,759.4,466.6z" transform="matrix(1, 0, 0, 1, 2.842170943040401e-14, 7.105427357601002e-15)"/><path fill="#7DA4EC" d="M700.6,433.7c-8.9,0.2-16.8,1.8-24.3,5.4c-5.6,2.7-4.8,1.9-4.7,7.4c0.2,15.8,0.5,31.6,0.8,47.4&#10;&#9;&#9;c0,0.8,0,1.6,0.1,2.4c0,0.7,0.3,1.3,1,1.5c5.2,2,10.4,4,15.7,5.9c0.6,0.2,1.2-0.3,1.4-0.9c0.3-0.8,0.4-1.5,0.6-2.3&#10;&#9;&#9;c4.7-20.7,9.4-41.4,14.1-62.1c0.2-0.9,0.4-1.9,0.5-2.8c0.1-0.8-0.4-1.3-1-1.4C703.2,433.8,701.6,433.7,700.6,433.7z" transform="matrix(1, 0, 0, 1, 2.842170943040401e-14, 7.105427357601002e-15)" style="fill: rgb(103, 58, 183);"/><path fill="#7DA4EC" d="M669.6,491.2C669.6,491.2,669.6,491.2,669.6,491.2c-0.3-14.2-0.5-28.4-0.8-42.6c0-1.1-0.1-2.2-0.2-3.3&#10;&#9;&#9;c-0.1-0.9-0.9-1.3-1.7-0.8c-3.4,2.2-6.1,5.1-9,7.9c-2,1.9-2.6,4.1-2.5,6.9c0.7,18.8,1.2,37.6,1.7,56.5c0.1,3.3,0.2,6.7,0.3,10&#10;&#9;&#9;c0,1.1,0.2,2.2,1,3.1c3,3.3,6.4,6.3,10.2,8.6c0.6,0.3,1.4-0.1,1.4-0.8c0-2.4-0.1-4.8-0.1-7.2C670,516.8,669.8,504,669.6,491.2z" transform="matrix(1, 0, 0, 1, 2.842170943040401e-14, 7.105427357601002e-15)" style="fill: rgb(103, 58, 183);"/><path fill="#7DA4EC" d="M672.7,509C672.7,509,672.7,509,672.7,509c0.1,1.9,0.2,3.8,0.1,5.7c-0.1,2.1,0.8,3.1,2.7,3.8&#10;&#9;&#9;c8.5,3.3,17.1,6.1,25.5,9.4c8,3.1,16.1,6,24.2,9c1,0.4,2.1,0.8,3.1,1.1c1,0.3,1.9,0.2,2.7-0.3c0.7-0.4,1.3-0.9,2-1.4&#10;&#9;&#9;c4.2-3,4.2-3,2.4-7.6c-0.2-0.6-0.5-1.2-0.7-1.8c-0.6-2.6-2.3-3.8-4.8-4.8c-17.8-6.6-35.5-13.4-53.3-20.1c-0.9-0.3-1.8-0.6-2.7-0.9&#10;&#9;&#9;c-0.8-0.2-1.2,0.2-1.3,1C672.6,504.5,672.7,506.7,672.7,509z" transform="matrix(1, 0, 0, 1, 2.842170943040401e-14, 7.105427357601002e-15)" style="fill: rgb(103, 58, 183);"/><path fill="#7DA4EC" d="M721.3,439c-0.1-0.8-0.5-1.2-1.1-1.5c-2.7-1.1-5.4-1.9-8.3-2.5c-2.4-0.5-2.8-0.3-3.4,1.9&#10;&#9;&#9;c-0.1,0.5-0.2,0.9-0.3,1.4c-4.5,19.8-8.9,39.6-13.4,59.4c-0.5,2-0.8,4.1-1.3,6.1c-0.2,0.9,0.1,1.6,1,1.9c2.8,1.1,5.7,2.2,8.5,3.3&#10;&#9;&#9;c1.8,0.7,2.2,0.5,2.7-1.4c0.2-0.8,0.4-1.5,0.6-2.3c2.5-10.9,5-21.8,7.5-32.7c2.2-9.8,4.5-19.6,6.7-29.5&#10;&#9;&#9;C720.8,441.7,721,440.3,721.3,439z" transform="matrix(1, 0, 0, 1, 2.842170943040401e-14, 7.105427357601002e-15)" style="fill: rgb(103, 58, 183);"/><path fill="#7DA4EC" d="M726.8,506.2c0.1-3.2,1.7-5.4,4.2-6.5c2.5-1.1,4.7-0.6,6.7,1.1c1.1,0.9,1.9,2.1,2.8,3.3&#10;&#9;&#9;c2.8,3.7,5.4,7.5,8.2,11.2c0.8,1.1,1.6,1.1,2.2,0c2.5-4.9,4.1-10,5-15.4c0.2-0.9-0.1-1.6-1-1.9c-1-0.4-2.1-0.8-3.1-1.2&#10;&#9;&#9;c-9.7-3.6-19.5-7.2-29.2-10.7c-2.5-0.9-4.9-2.3-7.7-2.4c-1.9,2.3-1.8,5.3-2.5,8c-1.4,5.4-2.5,10.9-3.7,16.3c-0.7,2.9-0.7,3,2.3,4.1&#10;&#9;&#9;c5.7,2.2,11.3,4.3,17,6.4c0.6,0.2,1.2,0.4,1.8,0.6c0.9,0.2,1.6-0.4,1.2-1.3c-1-2.7-2.1-5.3-3.1-8&#10;&#9;&#9;C727.4,508.4,727.1,507,726.8,506.2z" transform="matrix(1, 0, 0, 1, 2.842170943040401e-14, 7.105427357601002e-15)" style="fill: rgb(103, 58, 183);"/><path fill="#7DA4EC" d="M753.2,476.2c0-3.1-1.2-8.5-2.8-11.6C745,454,737,446,726.6,440.4c-1.8-1-2.5-0.7-3,1.4&#10;&#9;&#9;c-1,4.5-2,9-3.1,13.5c-0.6,2.5-1.2,5-1.7,7.5c-0.5,2.2-0.2,2.6,2.1,3.5c0.3,0.1,0.6,0.2,0.9,0.3c9.3,3.4,18.6,6.7,27.9,10.1&#10;&#9;&#9;c0.7,0.3,1.5,0.5,2.3,0.7C752.7,477.6,753.2,477.3,753.2,476.2z" transform="matrix(1, 0, 0, 1, 2.842170943040401e-14, 7.105427357601002e-15)" style="fill: rgb(103, 58, 183);"/><path fill="#7DA4EC" d="M756,493.9c0-0.3,0-0.6,0-0.9c-0.5-3-1.1-6-1.5-9c-0.2-2-1.2-3-3.1-3.7c-6.9-2.4-13.8-4.9-20.7-7.4&#10;&#9;&#9;c-3.8-1.3-7.5-2.7-11.3-4c-1.3-0.4-1.8-0.2-2.1,1c-0.7,2.9-1.4,5.9-2,8.9c-0.2,0.9,0.3,1.5,1.1,1.9c0.6,0.2,1.2,0.5,1.8,0.7&#10;&#9;&#9;c11.5,4.2,23,8.5,34.6,12.7c0.7,0.3,1.5,0.5,2.3,0.7C755.7,494.8,755.8,494.3,756,493.9z" transform="matrix(1, 0, 0, 1, 2.842170943040401e-14, 7.105427357601002e-15)" style="fill: rgb(103, 58, 183);"/><path fill="#7DA4EC" d="M653.9,492.7c0,0-0.1,0-0.1,0c-0.2-8.9-0.5-17.9-0.7-26.8c0-1.3-0.2-2.5-0.3-3.8c0-0.3-0.3-0.5-0.4-0.8&#10;&#9;&#9;c-0.4,0.2-0.9,0.4-1.1,0.7c-0.5,0.6-0.9,1.3-1.2,2c-9.5,19.3-8.8,38.1,2.2,56.6c0.3,0.5,0.8,1,1.2,1.5c0.2,0.3,0.5,0.3,0.8,0.1&#10;&#9;&#9;c0.1-0.1,0.2-0.2,0.3-0.3c0.1-0.9,0.2-1.9,0.1-2.8C654.4,510.2,654.1,501.4,653.9,492.7z" transform="matrix(1, 0, 0, 1, 2.842170943040401e-14, 7.105427357601002e-15)" style="fill: rgb(103, 58, 183);"/><path fill="#7DA4EC" d="M700.3,547c4,0.2,8-0.4,11.8-1.3c4.2-0.9,8.3-2.2,12.1-4.2c0.4-0.2,0.6-0.6,0.9-1c-0.4-0.3-0.7-0.7-1.1-0.9&#10;&#9;&#9;c-0.6-0.3-1.2-0.5-1.8-0.7c-6.4-2.4-12.8-4.8-19.2-7.1c-1.3-0.5-2.7-1.7-4-0.8c-0.7,0.5-0.5,2.1-0.9,3.1c-0.8,1.9-1.8,3.7-2.8,5.5&#10;&#9;&#9;c-1,1.8-2,3.6-3,5.4c-0.3,0.6,0,1.3,0.7,1.5C695.5,547.1,697.9,546.9,700.3,547z" transform="matrix(1, 0, 0, 1, 2.842170943040401e-14, 7.105427357601002e-15)" style="fill: rgb(103, 58, 183);"/><path fill="#FFFFFF" d="M652.6,568.4c0,0.4-0.2,0.9,0.5,1c0.3,0,0.6-0.2,0.8-0.4c0.5-0.4,0.9-0.9,1.3-1.4&#10;&#9;&#9;c4.9-6.1,9.8-12.2,14.6-18.3c1.3-1.6,2.8-3.1,3.6-5c-1.1-2-3.3-2.3-4.9-3.5c-2.3-1.7-4.6-3.4-7-5c-0.6-0.4-1.3-0.3-1.5,0.4&#10;&#9;&#9;c-0.8,3.1-1.5,6.2-2.2,9.3C656.1,553.2,654.4,560.8,652.6,568.4z" transform="matrix(1, 0, 0, 1, 2.842170943040401e-14, 7.105427357601002e-15)"/><path fill="#7DA4EC" d="M672.9,530.4c0,0,0.1,0,0.1,0c0.1,1.3,0.2,2.5,0.2,3.8c0.1,1.7,0,3.5,0.3,5.2c0.2,1.6,2.3,2.2,3.3,1&#10;&#9;&#9;c1.4-1.5,2.7-3.2,3.9-4.8c2.2-2.7,4.4-5.5,6.5-8.3c0.4-0.6,0.3-1.2-0.4-1.5c-0.9-0.4-1.8-0.7-2.7-1c-3.1-1.2-6.3-2.3-9.4-3.4&#10;&#9;&#9;c-1.2-0.4-1.8,0.1-1.8,1.4C672.9,525.3,672.9,527.9,672.9,530.4z" transform="matrix(1, 0, 0, 1, 2.842170943040401e-14, 7.105427357601002e-15)" style="fill: rgb(103, 58, 183);"/><path fill="#FFFFFF" d="M761.9,530.3c0,0.2,0-0.5-0.1-1.3c-0.7-4.2-1.3-8.5-2-12.7c-0.4-2.5-0.8-5-1.3-7.5&#10;&#9;&#9;c-0.1-0.6-0.1-1.3-0.8-1.4c-0.2,0-0.6,0.6-0.8,1c-1.4,3.2-2.7,6.4-4.1,9.6c-0.5,1.2-0.5,2.1,0.3,3.1c2.4,3.3,4.9,6.7,7.3,10&#10;&#9;&#9;c0.2,0.3,0.4,0.5,0.7,0.7c0.1,0.1,0.3,0.1,0.4,0.1C761.7,532,761.9,531.8,761.9,530.3z" transform="matrix(1, 0, 0, 1, 2.842170943040401e-14, 7.105427357601002e-15)"/><path fill="#151D38" d="M1058.1,467.3c-13.8,0-27.5,0-41.3,0c-1.3,0-2.6,0-3.8-0.1c-1.4-0.1-2-0.7-2.1-2.1&#10;&#9;&#9;c-0.1-0.8-0.1-1.6-0.1-2.4c0-7.8,0-15.7,0-23.5c0-0.5,0-1,0-1.4c0.2-2.6,0.6-3.1,3.1-3.2c2.1-0.1,4.2,0,6.2,0c7.8,0,15.7,0,23.5,0&#10;&#9;&#9;c1.3,0,2.6-0.1,3.8-0.2c0.7-0.1,1.1-0.6,1.2-1.3c0-0.3,0.1-0.6,0.1-0.9c0-7.4,0-14.7,0-22.1c0-2.1-0.4-2.5-2.5-2.6&#10;&#9;&#9;c-3.2-0.1-6.4,0-9.6,0c-1.6,0-2.6-0.7-2.4-1.6c0.3-1.3,1.4-1.1,2.3-1.1c1,0,1.9,0,2.9,0c27.3,0,54.7,0,82,0c6.2,0,5.9-0.4,5.9,6.1&#10;&#9;&#9;c0,7,0,14.1,0,21.1c0,1.3,0,2.6-0.2,3.8c-0.1,0.9-0.7,1.5-1.6,1.5c-1.3,0.1-2.6,0.1-3.8,0.1c-8.8,0-17.6,0-26.4,0&#10;&#9;&#9;c-1.3,0-2.6,0-3.8,0c-1.6,0.1-2.2,0.5-2.2,1.9c0,7.7,0,15.3,0,23c0,1.5,0.6,2,2,2.1c3.2,0.1,6.4,0,9.6,0.1c2,0,3.1,0.7,2.9,1.6&#10;&#9;&#9;c-0.4,1.5-1.7,1.2-2.8,1.2c-13.4,0-26.9,0-40.3,0C1060,467.3,1059.1,467.3,1058.1,467.3z" transform="matrix(1, 0, 0, 1, 2.842170943040401e-14, 7.105427357601002e-15)"/><path fill="#ACDCF6" d="M1050.4,464.5c10.2,0,20.4,0,30.7,0c1.3,0,2.6,0,3.8-0.1c1.2,0,1.7-0.8,1.7-1.9c0-1.1,0-2.2,0-3.4&#10;&#9;&#9;c0-5.4,0-10.9,0-16.3c0-6,0.4-5.5-5.3-5.5c-20.8,0-41.5,0-62.3,0c-1,0-1.9,0-2.9,0c-2,0.1-2.5,0.5-2.5,2.6&#10;&#9;&#9;c-0.1,7.2-0.1,14.4,0,21.6c0,2.5,0.3,2.8,2.7,2.9c1.1,0,2.2,0,3.4,0C1030,464.5,1040.2,464.5,1050.4,464.5z" transform="matrix(1, 0, 0, 1, 2.842170943040401e-14, 7.105427357601002e-15)" style="fill: rgb(204, 214, 218);"/><path fill="#151D38" d="M1088.3,434.6C1088.3,434.6,1088.3,434.6,1088.3,434.6c11.2,0,22.4,0,33.5,0c2.5,0,2.8-0.3,2.8-2.8&#10;&#9;&#9;c0.1-6.4,0-12.8,0-19.2c0-5.4,0.3-5.1-5.3-5.1c-20.8,0-41.5,0-62.3,0c-1,0-1.9,0-2.9,0c-2.2,0.1-2.5,0.4-2.5,2.5c0,7.3,0,14.7,0,22&#10;&#9;&#9;c0,0.3,0,0.6,0.1,1c0.1,0.9,0.7,1.4,1.6,1.4c1.3,0.1,2.6,0.1,3.8,0.1C1067.6,434.6,1078,434.6,1088.3,434.6z" transform="matrix(1, 0, 0, 1, 2.842170943040401e-14, 7.105427357601002e-15)"/><path fill="#151D38" d="M601.1,277.1c13.6,0,27.2,0,40.8,0c1.3,0,2.6,0,3.8,0.1c1.5,0.1,2,0.6,2.2,2c0.1,0.8,0.1,1.6,0.1,2.4&#10;&#9;&#9;c0,8,0,16,0,24c0,1-0.1,1.9-0.2,2.9c-0.1,0.7-0.6,1.2-1.3,1.2c-1.3,0.1-2.6,0.1-3.8,0.2c-8.8,0-17.6,0-26.4,0c-1.3,0-2.6,0-3.8,0&#10;&#9;&#9;c-1.8,0.1-2.2,0.5-2.2,2.4c-0.1,6.9,0,13.8,0,20.6c0,7.5,0.8,6.9-7,6.9c-21.9,0-43.8,0-65.7,0c-6.2,0-5.9,0-5.9-5.7&#10;&#9;&#9;c0-7.2,0-14.4,0-21.6c0-1.1,0-2.2,0.1-3.4c0.1-1.4,0.7-2,2.1-2.1c1.3-0.1,2.6-0.1,3.8-0.1c8.8,0,17.6,0,26.4,0c1.3,0,2.6,0,3.8-0.1&#10;&#9;&#9;c0.9-0.1,1.5-0.6,1.6-1.5c0.1-0.8,0.1-1.6,0.1-2.4c0-6.4,0-12.8,0-19.2c0-0.8-0.1-1.6-0.1-2.4c-0.1-0.9-0.7-1.5-1.6-1.5&#10;&#9;&#9;c-2.6-0.1-5.1,0-7.7-0.1c-1.3,0-2.6,0-3.8-0.1c-0.7,0-1.1-0.5-1.4-1.2c-0.2-0.6,0.6-1.4,1.5-1.5c1.4-0.1,2.9-0.1,4.3-0.1&#10;&#9;&#9;C574.3,277.1,587.7,277.1,601.1,277.1z" transform="matrix(1, 0, 0, 1, 2.842170943040401e-14, 7.105427357601002e-15)"/><path fill="#ACDCF6" d="M571,336.9c1,0,1.9,0,2.9,0c10.1,0,20.1,0,30.2,0c3.1,0,3.3-0.2,3.3-3.2c0-6.7,0-13.4,0-20.1&#10;&#9;&#9;c0-3.7-0.1-3.7-3.7-3.8c-0.3,0-0.6,0-1,0c-21.3,0-42.5,0-63.8,0c-1,0-1.9,0-2.9,0.1c-0.9,0.1-1.5,0.5-1.6,1.5&#10;&#9;&#9;c-0.1,0.5-0.1,1-0.1,1.4c0,7,0,14.1,0,21.1c0,0.5,0,1,0.1,1.4c0.1,0.9,0.6,1.5,1.5,1.5c1.3,0.1,2.6,0.1,3.8,0.1&#10;&#9;&#9;C550.2,336.9,560.6,336.9,571,336.9z" transform="matrix(1, 0, 0, 1, 2.842170943040401e-14, 7.105427357601002e-15)" style="fill: rgb(204, 214, 218);"/><path fill="#EDCFE4" d="M609.3,279.9c-10.5,0-21.1,0-31.6,0c-1.3,0-2.6,0-3.8,0.1c-0.7,0-1.2,0.5-1.3,1.2c-0.1,1-0.2,1.9-0.2,2.9&#10;&#9;&#9;c0,6.2,0,12.5,0,18.7c0,4.2,0.1,4.2,4.2,4.2c21.4,0,42.8,0,64.2,0c1,0,1.9,0,2.9-0.1c0.7-0.1,1.2-0.5,1.3-1.2&#10;&#9;&#9;c0.1-0.8,0.2-1.6,0.2-2.4c0-6.5,0-13.1,0-19.6c0-0.8-0.1-1.6-0.2-2.4c-0.1-0.7-0.5-1.2-1.2-1.2c-1.3-0.1-2.6-0.1-3.8-0.1&#10;&#9;&#9;C629.8,279.9,619.5,279.9,609.3,279.9z" transform="matrix(1, 0, 0, 1, 2.842170943040401e-14, 7.105427357601002e-15)" style="fill: rgb(255, 215, 64);"/><path fill="#151D38" d="M1200.2,747.2c58.6,0,117.1,0,175.7,0c1.8,0,3.5,0.1,5.3,0.2c0.4,0,0.9,0.3,0.9,0.9&#10;&#9;&#9;c0.1,0.7-0.2,1.2-0.9,1.5c-0.4,0.2-0.9,0.2-1.4,0.2c-1.3,0-2.6,0-3.8,0c-117.6,0-235.2,0-352.8,0c-1.8,0-3.5-0.1-5.3-0.3&#10;&#9;&#9;c-0.6-0.1-1.1-0.6-1-1.4c0-0.6,0.5-0.9,0.9-0.9c1.4-0.1,2.9-0.2,4.3-0.2c13.4,0,26.9,0,40.3,0&#10;&#9;&#9;C1108.4,747.2,1154.3,747.2,1200.2,747.2z" transform="matrix(1, 0, 0, 1, 2.842170943040401e-14, 7.105427357601002e-15)"/><path fill="#151D38" d="M347.9,381.6c-11,0-22,0-33.1,0c-1.1,0-2.2,0-3.4,0c-2.3-0.1-2.7-0.5-2.8-2.9c0-8.9,0-17.9,0-26.8&#10;&#9;&#9;c0-0.3,0-0.6,0.1-1c0.1-1.1,0.7-1.8,1.8-1.9c1.3-0.1,2.6-0.1,3.8-0.1c22.4,0,44.7,0,67.1,0c1.1,0,2.2,0,3.4,0&#10;&#9;&#9;c1.7,0.1,2.2,0.6,2.3,2.4c0.1,2.2,0.1,4.5,0.1,6.7c0,6.1,0,12.1,0,18.2c0,1,0,1.9-0.1,2.9c-0.1,1.7-0.7,2.3-2.3,2.4&#10;&#9;&#9;c-1.3,0.1-2.6,0-3.8,0C369.9,381.6,358.9,381.6,347.9,381.6z" transform="matrix(1, 0, 0, 1, 2.842170943040401e-14, 7.105427357601002e-15)"/><path fill="#EDCFE4" d="M348,378.8c10.2,0,20.4,0,30.7,0c1.3,0,2.6,0,3.8-0.1c0.9,0,1.5-0.5,1.6-1.4c0.1-0.6,0.2-1.3,0.2-1.9&#10;&#9;&#9;c0-6.7,0-13.4,0-20.1c0-0.6-0.1-1.3-0.1-1.9c-0.1-0.9-0.7-1.4-1.5-1.5c-1.1-0.1-2.2-0.1-3.3-0.1c-20.9,0-41.8,0-62.8,0&#10;&#9;&#9;c-1,0-1.9,0-2.9,0c-1.8,0.1-2.1,0.4-2.2,2.4c0,0.5,0,1,0,1.4c0,6.4,0,12.8,0,19.2c0,0.8,0,1.6,0.1,2.4c0.1,0.9,0.6,1.5,1.5,1.5&#10;&#9;&#9;c1.3,0.1,2.6,0.1,3.8,0.1C327.3,378.8,337.6,378.8,348,378.8z" transform="matrix(1, 0, 0, 1, 2.842170943040401e-14, 7.105427357601002e-15)" style="fill: rgb(255, 215, 64);"/><path fill="#151D38" d="M1279.4,291.4c-11.5,0-23,0-34.6,0c-4.4,0-4.6-0.2-4.6-4.6c0-7.8,0-15.7,0-23.5c0-1,0-1.9,0.2-2.9&#10;&#9;&#9;c0.1-0.9,0.7-1.5,1.5-1.6c1.1-0.2,2.2-0.2,3.3-0.2c22.9,0,45.7,0,68.6,0c5,0,5,0,5,5.1c0,7.5,0,15,0,22.6c0,1,0,1.9-0.1,2.9&#10;&#9;&#9;c-0.1,1.6-0.7,2.1-2.5,2.2c-1.3,0.1-2.6,0-3.8,0C1301.5,291.4,1290.5,291.4,1279.4,291.4z" transform="matrix(1, 0, 0, 1, 2.842170943040401e-14, 7.105427357601002e-15)"/><path fill="#ACDCF6" d="M1279.7,288.6C1279.7,288.6,1279.7,288.6,1279.7,288.6c11.2,0,22.4,0,33.5,0c2.5,0,2.8-0.4,2.9-2.7&#10;&#9;&#9;c0.1-7,0.1-14.1,0-21.1c0-3.2-0.1-3.2-3.2-3.3c-0.5,0-1,0-1.4,0c-21.2,0-42.5,0-63.7,0c-0.8,0-1.6,0-2.4,0.1c-1.5,0.1-2,0.6-2.2,2&#10;&#9;&#9;c0,0.5-0.1,1-0.1,1.4c0,6.7,0,13.4,0,20.1c0,0.6,0,1.3,0.1,1.9c0.1,0.9,0.6,1.5,1.5,1.6c1.3,0.1,2.6,0.1,3.8,0.1&#10;&#9;&#9;C1258.9,288.6,1269.3,288.6,1279.7,288.6z" transform="matrix(1, 0, 0, 1, 2.842170943040401e-14, 7.105427357601002e-15)" style="fill: rgb(204, 214, 218);"/><path fill="#151D38" d="M926.4,189c11.5,0,23,0,34.5,0c4.3,0,4.3,0.1,4.4,4.3c0,8.5,0,16.9,0,25.4c0,2.4-0.5,2.8-2.7,3&#10;&#9;&#9;c-1,0.1-1.9,0-2.9,0c-22.4,0-44.8,0-67.2,0c-6.3,0-5.8,0.1-5.8-5.7c0-7.4,0-14.7,0-22.1c0-1,0-1.9,0.1-2.9c0.1-1.4,0.7-1.9,2.2-2&#10;&#9;&#9;c1.3-0.1,2.6-0.1,3.8-0.1C904,189,915.2,189,926.4,189z" transform="matrix(1, 0, 0, 1, 2.842170943040401e-14, 7.105427357601002e-15)"/><path fill="#151D38" d="M925.2,218.9c10.5,0,21.1,0,31.6,0c1.3,0,2.6,0,3.8-0.1c1.1-0.1,1.7-0.8,1.7-1.9c0-1.1,0-2.2,0-3.4&#10;&#9;&#9;c0-5.4,0-10.9,0-16.3c0-5.7,0.2-5.4-5.6-5.4c-20.6,0-41.2,0-61.8,0c-1,0-1.9,0-2.9,0c-2.2,0.1-2.6,0.5-2.6,2.5c0,7.4,0,14.7,0,22.1&#10;&#9;&#9;c0,0.3,0,0.6,0.1,1c0.1,1,0.7,1.4,1.6,1.5c1.3,0.1,2.6,0.1,3.8,0.1C905.1,218.9,915.2,218.9,925.2,218.9z" transform="matrix(1, 0, 0, 1, 2.842170943040401e-14, 7.105427357601002e-15)"/><path fill="#151D38" d="M632.8,403.5c-1.8,0-3.5,0-5.3,0c-0.6,0-1.3,0-1.9-0.2c-0.7-0.1-1.2-0.6-1.2-1.3c0-0.7,0.5-1.2,1.2-1.2&#10;&#9;&#9;c4.9-0.3,9.9-0.3,14.8,0.1c0.4,0,0.9,0.3,1,0.9c0.1,0.8-0.4,1.4-0.9,1.4c-2.5,0.1-5.1,0.1-7.6,0.1&#10;&#9;&#9;C632.8,403.4,632.8,403.4,632.8,403.5z" transform="matrix(1, 0, 0, 1, 2.842170943040401e-14, 7.105427357601002e-15)"/><path fill="#151D38" d="M1079.4,158.8c-2.4,0-4.8,0-7.2,0c-0.3,0-0.8-0.6-0.9-0.9c-0.2-0.7,0.2-1.2,0.9-1.4&#10;&#9;&#9;c0.6-0.2,1.3-0.2,1.9-0.2c3.8,0,7.7,0,11.5,0c0.5,0,1,0,1.4,0.1c0.7,0.1,1.2,0.6,1.2,1.3c0,0.7-0.5,1.2-1.2,1.2&#10;&#9;&#9;c-1.7,0.1-3.5,0.1-5.3,0.1c-0.8,0-1.6,0-2.4,0C1079.4,158.9,1079.4,158.9,1079.4,158.8z" transform="matrix(1, 0, 0, 1, 2.842170943040401e-14, 7.105427357601002e-15)"/><path fill="#151D38" d="M872.5,266.3c2.5,0.1,5.1,0.2,7.6,0.4c0.5,0,0.8,0.5,0.8,1c-0.1,0.4-0.4,0.9-0.7,1.1&#10;&#9;&#9;c-0.5,0.3-1.2,0.4-1.8,0.4c-4,0-7.9,0-11.9,0c-0.6,0-1.3-0.2-1.8-0.5c-0.3-0.2-0.5-0.7-0.6-1.1c-0.1-0.6,0.4-0.9,0.8-0.9&#10;&#9;&#9;c0.9-0.1,1.9-0.2,2.8-0.2c1.6,0,3.2,0,4.8,0C872.5,266.4,872.5,266.3,872.5,266.3z" transform="matrix(1, 0, 0, 1, 2.842170943040401e-14, 7.105427357601002e-15)"/><path fill="#151D38" d="M377.3,139.7c-2.2,0-4.5,0-6.7,0c-0.7,0-1.2-0.2-1.7-0.7c-0.4-0.4-0.2-1.5,0.2-1.6c0.4-0.2,0.9-0.4,1.4-0.4&#10;&#9;&#9;c4.5,0,8.9,0,13.4,0c0.3,0,0.6,0.1,0.9,0.2c0.5,0.1,0.8,0.6,0.7,1.1c-0.1,0.4-0.4,0.9-0.7,1.1c-1.5,0.7-3.1,0.3-4.7,0.4&#10;&#9;&#9;C379.2,139.8,378.2,139.7,377.3,139.7C377.3,139.7,377.3,139.7,377.3,139.7z" transform="matrix(1, 0, 0, 1, 2.842170943040401e-14, 7.105427357601002e-15)"/><path fill="#151D38" d="M417.1,419.4c-2.5-0.1-5.1-0.2-7.6-0.4c-0.5,0-0.8-0.6-0.7-1c0.1-0.4,0.4-0.9,0.7-1.1&#10;&#9;&#9;c0.5-0.3,1.2-0.4,1.8-0.4c4,0,8,0,11.9,0c0.5,0,1,0,1.4,0.2c0.6,0.3,1,0.7,1,1.5c0,0.6-0.5,0.9-0.9,0.9c-0.9,0.1-1.9,0.2-2.9,0.2&#10;&#9;&#9;c-1.6,0-3.2,0-4.8,0C417.1,419.4,417.1,419.4,417.1,419.4z" transform="matrix(1, 0, 0, 1, 2.842170943040401e-14, 7.105427357601002e-15)"/><path fill="#151D38" d="M111.5,457.5c-1.9,0-3.8,0-5.7,0c-0.6,0-1.3,0-1.9-0.2c-0.4-0.2-0.7-0.7-0.8-1.1c-0.1-0.7,0.3-1.3,1-1.3&#10;&#9;&#9;c1.4-0.1,2.8-0.1,4.3-0.1c3.2,0,6.3,0,9.5,0c1,0,2,0,2.2,1.2c0.2,0.8-0.9,1.5-2.5,1.5C115.6,457.5,113.5,457.5,111.5,457.5&#10;&#9;&#9;C111.5,457.5,111.5,457.5,111.5,457.5z" transform="matrix(1, 0, 0, 1, 2.842170943040401e-14, 7.105427357601002e-15)"/><path fill="#151D38" d="M264.5,351.6c-2.4,0-4.8,0.1-7.1,0c-0.6,0-1.1-0.6-1.1-1.3c0-0.5,0.2-1,0.8-1c5.1-0.5,10.1-0.3,15.2-0.1&#10;&#9;&#9;c0.4,0,0.8,0.4,0.9,0.9c0,0.7-0.4,1.4-1,1.4C269.6,351.6,267,351.6,264.5,351.6C264.5,351.6,264.5,351.6,264.5,351.6z" transform="matrix(1, 0, 0, 1, 2.842170943040401e-14, 7.105427357601002e-15)"/><path fill="#151D38" d="M1133.4,324.5c-2.5-0.1-5.1-0.2-7.6-0.4c-0.5,0-0.8-0.5-0.8-1c0-0.5,0.1-1,0.7-1.1c0.6-0.2,1.2-0.4,1.8-0.4&#10;&#9;&#9;c4,0,7.9,0,11.9,0c0.8,0,1.6,0.1,2.2,0.7c0.4,0.4,0.3,1.5-0.2,1.6c-0.6,0.2-1.2,0.4-1.8,0.4c-2.1,0.1-4.1,0-6.2,0&#10;&#9;&#9;C1133.4,324.4,1133.4,324.5,1133.4,324.5z" transform="matrix(1, 0, 0, 1, 2.842170943040401e-14, 7.105427357601002e-15)"/><path fill="#151D38" d="M520.1,598.3c4.6,0.2,7.8-2.1,9-6.2c0.5-1.8,0.2-3.5-0.4-5.1c-0.7-1.7-1.6-2.2-3.3-1.5&#10;&#9;&#9;c-2.3,0.9-4.6,1.4-7,0.9c-1.8-0.4-2.5-1.7-1.4-3.1c3-3.7,6-7.4,9.1-11.1c1.2-1.4,2.6-1.1,3.3,0.7c1,2.4,1.2,4.9,0.5,7.5&#10;&#9;&#9;c-0.4,1.4,0,1.9,1.5,2.4c5.6,1.7,11.2-3.1,10.5-8.9c-0.2-1.3-1-2.4-0.7-3.7c0.1-0.5,0.3-0.9,0.9-0.9c0.3,0,0.7,0,0.9,0.2&#10;&#9;&#9;c0.4,0.5,0.8,1,1,1.5c2.3,6.1-0.9,12.5-7.2,14.4c-0.5,0.1-0.9,0.3-1.4,0.4c-1.2,0.4-2.9-0.4-3.5,1c-0.4,0.9,0.3,2.2,0.2,3.3&#10;&#9;&#9;c0,5.9-4.4,10.7-10.3,11.3c-1.5,0.1-2.9,0-4.2-0.8c-0.5-0.3-0.5-0.8-0.5-1.2c0-0.6,0.5-0.9,0.9-0.9&#10;&#9;&#9;C518.8,598.2,519.4,598.3,520.1,598.3z" transform="matrix(1, 0, 0, 1, 2.842170943040401e-14, 7.105427357601002e-15)"/><path fill="#151D38" d="M495.8,614.8c0,4.3-3.5,7.8-7.9,7.9c-4.7,0.1-8.2-3.4-8.2-8c0-4.4,3.5-7.9,7.8-8.1&#10;&#9;&#9;C491.9,606.5,495.8,610.4,495.8,614.8z" transform="matrix(1, 0, 0, 1, 2.842170943040401e-14, 7.105427357601002e-15)"/><path fill="#151D38" d="M540.3,554.1c-5,0-9.4,1.6-13.2,4.8c-1,0.8-1.9,1.8-2.8,2.6c-0.5,0.5-1.2,0.6-1.7,0.2&#10;&#9;&#9;c-0.7-0.6-0.6-1.4-0.2-2.1c0.2-0.3,0.4-0.5,0.6-0.7c6.4-6.7,14.3-9.2,23.1-6.8c8.9,2.4,14.4,8.5,16.3,17.7c1.3,6.3-0.2,12-3.6,17.3&#10;&#9;&#9;c-0.3,0.5-0.7,1-1.2,1.5c-0.5,0.5-1.1,0.7-1.7,0.4c-0.6-0.3-0.9-1.3-0.4-2.1c1.9-2.8,3.4-5.7,4.1-9.1&#10;&#9;&#9;C562.2,566.5,553.3,554.1,540.3,554.1z" transform="matrix(1, 0, 0, 1, 2.842170943040401e-14, 7.105427357601002e-15)"/><path fill="#151D38" d="M561.2,534.8c0.1,4.6-3.6,8.2-8.2,8.1c-4.3-0.1-7.9-3.6-7.9-7.9c-0.1-4.4,3.8-8.3,8.2-8.2&#10;&#9;&#9;C557.6,526.9,561.1,530.5,561.2,534.8z" transform="matrix(1, 0, 0, 1, 2.842170943040401e-14, 7.105427357601002e-15)"/><path fill="#151D38" d="M1108.5,868.7c-35.8,0-71.6,0-107.5,0c-1.6,0-3.2-0.1-4.8-0.2c-0.4,0-0.8-0.4-0.9-1&#10;&#9;&#9;c-0.1-0.7,0.3-1.4,0.9-1.5c1.2-0.2,2.5-0.3,3.8-0.3c8.5,0,16.9,0,25.4,0c1.3,0,2.6,0,3.8-0.1c0.2,0,0.4-0.3,0.6-0.5&#10;&#9;&#9;c-0.2-0.2-0.4-0.5-0.6-0.6c-1.5-0.6-3-1.2-4.4-1.8c-9.1-3.9-16.9-9.6-22.9-17.6c-1.5-2-2.8-4.3-4.1-6.5c-1.1-1.8-1-3.5,0.1-5.4&#10;&#9;&#9;c3.4-5.9,7.8-10.9,13-15.2c9.4-7.7,20.3-12,32.2-13.9c4.1-0.6,8.2-1.1,12.4-1c2.3,0.1,2.9,0.6,2.9,2.9c0.1,6.9,0,13.8,0.1,20.6&#10;&#9;&#9;c0,2.4-0.4,4.8,0.3,7.1c2.4,1.2,5,0.6,7.5,0.6c3.4,0.1,6.7,0.1,10.1,0c1.8,0,2.2-0.5,2.3-2.3c0.1-4.3,0-8.6,0-13&#10;&#9;&#9;c0-1.1,0.1-2.2,0.4-3.3c0.1-0.3,0.7-0.8,1.1-0.8c0.4,0,1,0.4,1.1,0.7c0.2,1.1,0.4,2.2,0.4,3.3c0,4.3,0,8.6,0,13&#10;&#9;&#9;c0,1.9,0.4,2.3,2.2,2.4c4,0.1,8,0.1,12,0c1.7,0,2.1-0.5,2.2-2.4c0.1-4.5,0-9,0-13.4c0-0.9-0.2-2,0.5-2.8c0.3-0.3,0.8-0.7,1.1-0.7&#10;&#9;&#9;c0.4,0,1,0.4,1,0.7c0.2,1.1,0.3,2.2,0.3,3.3c0,4.2,0,8.3,0,12.5c0,2.4,0.4,2.7,2.9,2.8c3.8,0.1,7.7,0,11.5,0c1.5,0,2-0.5,2.1-2&#10;&#9;&#9;c0.1-4.3,0-8.6,0.1-13c0-1.3-0.2-2.6,0.5-3.7c0.1-0.2,0.4-0.4,0.7-0.5c0.5-0.2,0.9,0.1,1.2,0.4c0.6,0.6,0.6,1.5,0.6,2.3&#10;&#9;&#9;c0,3,0,6.1,0,9.1c0,1.6,0,3.2,0,4.8c0.1,2.2,0.4,2.7,2.4,2.7c5.3,0.1,10.6,0.1,15.8,0c2,0,2.4-0.4,2.3-2.7c-0.1-3.5,0.1-7,0.7-10.5&#10;&#9;&#9;c1.8-9.6,7.2-15.2,16.9-17.3c4.4-1,8.9-0.9,13.4-0.6c2.1,0.2,2.8,0.8,3.1,3c0.7,5.9,0.4,11.8-1.7,17.5c-1.6,4.5-4.5,8.1-8.8,10.3&#10;&#9;&#9;c-0.7,0.4-1.4,0.7-2.1,1.2c-0.3,0.2-0.7,0.8,0,1.1c0.7,0.4,1.4,0.8,2.1,1.1c4.5,2.4,7.3,6.1,8.9,10.8c1.1,3.4,1.8,6.8,1.8,10.3&#10;&#9;&#9;c0,1.8,0,3.5,0,5.3c0,1,0.6,1.4,1.5,1.5c1.3,0.1,2.6,0.1,3.8,0.1c11.8,0,23.7,0,35.5,0c1.3,0,2.6,0,3.8,0.2c0.6,0.1,1,0.8,0.9,1.5&#10;&#9;&#9;c-0.1,0.4-0.5,0.8-0.8,1c-0.4,0.2-0.9,0.2-1.4,0.2c-1.4,0-2.9,0-4.3,0C1179.2,868.7,1143.9,868.7,1108.5,868.7z M1104.7,865.7&#10;&#9;&#9;c11.2,0,22.4,0,33.6,0c3.5,0,7,0,10.5,0c0.6,0,1.4,0.3,1.6-0.6c0.1-0.3-0.4-0.8-0.7-1.1c-4.7-3.6-6.8-8.7-7.8-14.4&#10;&#9;&#9;c-0.6-3.3-0.5-6.7-0.5-10c0-1.6-0.4-2-1.9-2c-5.4,0-10.9-0.1-16.3,0c-2.1,0-2.3,0.3-2.4,2.7c-0.1,3.4,0,6.7,0,10.1&#10;&#9;&#9;c0,1.1-0.1,2.2-0.2,3.3c-0.1,0.7-0.5,1.2-1.2,1.3c-0.7,0.1-1.3-0.4-1.4-1.1c-0.2-1.3-0.3-2.5-0.3-3.8c-0.1-3.5-0.1-7-0.1-10.5&#10;&#9;&#9;c0-1.1-0.5-1.9-1.7-1.9c-4.3,0-8.6,0-12.9,0c-1.1,0-1.7,0.7-1.8,1.8c0,3,0,6.1-0.1,9.1c0,1.6,0,3.2-0.1,4.8c0,0.8-0.4,1.6-1.4,1.6&#10;&#9;&#9;c-0.9-0.1-1.3-0.8-1.4-1.7c-0.1-1.1-0.1-2.2-0.1-3.4c0-3.4,0-6.7,0-10.1c0-1.9-0.4-2.2-2.3-2.2c-4,0-8,0-12,0c-1.5,0-2,0.5-2,2&#10;&#9;&#9;c-0.1,4.2,0,8.3-0.1,12.5c0,2.1-0.7,3.1-1.7,2.8c-1.4-0.4-1.2-1.7-1.2-2.8c0-0.6,0-1.3,0-1.9c0-3.5,0-7,0-10.5c0-1.6-0.5-2-2-2.1&#10;&#9;&#9;c-4.3-0.1-8.6-0.1-12.9-0.1c-1.3,0-2.6,0-3.8,0.1c-0.7,0-1.2,0.5-1.3,1.2c-0.1,0.5-0.1,1-0.1,1.4c0,7.7,0,15.3,0,23&#10;&#9;&#9;c0,0.3,0,0.6,0.1,1c0.1,0.9,0.7,1.4,1.6,1.4c1.3,0.1,2.6,0.1,3.8,0.1C1077.6,865.7,1091.1,865.7,1104.7,865.7z M1055.5,836.2&#10;&#9;&#9;c0-8.3,0-16.6,0-24.9c0-1.3,0-2.6-0.1-3.8c-0.1-0.7-0.6-1.2-1.3-1.2c-1.3,0-2.6-0.1-3.8,0.1c-3.8,0.5-7.6,0.9-11.4,1.7&#10;&#9;&#9;c-12,2.6-22.5,8-31,17c-2.8,2.9-5.2,6.1-7.1,9.6c-0.5,0.9-0.6,1.8,0,2.7c0.9,1.5,1.7,3.1,2.7,4.5c5.6,8.1,13.2,13.9,22.1,17.9&#10;&#9;&#9;c7.8,3.5,16.1,5.2,24.6,5.8c1.1,0.1,2.2,0.1,3.4,0.1c1.5,0,1.9-0.5,2-2.1c0.1-1.1,0-2.2,0-3.4&#10;&#9;&#9;C1055.5,852.2,1055.5,844.2,1055.5,836.2z M1166.8,806.1c-2.6-0.2-5.6,0.4-8.5,1.1c-4.5,1.2-8.3,3.4-10.6,7.6&#10;&#9;&#9;c-3.1,5.5-3.7,11.5-3.1,17.7c0.1,1.1,0.8,1.7,1.9,1.8c4.3,0.5,8.6,0.1,12.8-1c6.7-1.7,10.7-6.2,12.4-12.7c0.8-2.9,1.2-6,1.1-9&#10;&#9;&#9;C1172.6,806.4,1172.4,806.1,1166.8,806.1z M1150.7,837.7c-1.3,0-2.6-0.1-3.8,0c-1.8,0.1-2.3,0.5-2.5,2.3c-0.4,4.5,0,8.9,1.4,13.3&#10;&#9;&#9;c1.8,6,6,9.7,11.9,11.4c4.1,1.2,8.2,1.3,12.4,1c1.8-0.1,2.3-0.6,2.5-2.3c0.4-4.5-0.1-8.9-1.4-13.3c-1.8-5.8-5.7-9.5-11.4-11.3&#10;&#9;&#9;C1156.8,837.9,1153.8,837.6,1150.7,837.7z" transform="matrix(1, 0, 0, 1, 2.842170943040401e-14, 7.105427357601002e-15)"/><path fill="#151D38" d="M1031.2,844.7c-5.5-0.1-9.5-4.3-9.4-9.9c0.1-5.5,4.4-9.6,9.8-9.5c5.3,0.1,9.7,4.7,9.5,9.9&#10;&#9;&#9;C1041,840.6,1036.7,844.7,1031.2,844.7z" transform="matrix(1, 0, 0, 1, 2.842170943040401e-14, 7.105427357601002e-15)"/>
<path d="M 608.38037109375 297.1598205566406 L 608.38037109375 297.1598205566406" style="fill: rgb(255, 215, 64); fill-opacity: 1; stroke: rgb(0, 0, 0); stroke-opacity: 1; stroke-width: 0; paint-order: fill;"/><path d="M 687.96728515625 452.77008056640625 L 687.96728515625 452.77008056640625" style="fill: rgb(21, 29, 56); fill-opacity: 1; stroke: rgb(0, 0, 0); stroke-opacity: 1; stroke-width: 0; paint-order: fill;"/><path d="M 981.3698120117188 387.4375305175781" style="fill: rgb(103, 58, 183); fill-opacity: 1; stroke: rgb(0, 0, 0); stroke-opacity: 1; stroke-width: 0; paint-order: fill;"/></svg>