<svg width="225.5724365234375px" height="172.40498046874998px" xmlns="http://www.w3.org/2000/svg" viewBox="137.21378173828126 -11.202490234374991 225.5724365234375 172.40498046874998" style="background: rgba(0, 0, 0, 0);" preserveAspectRatio="xMidYMid"><defs><filter id="editing-extrusion" x="-100%" y="-100%" width="300%" height="300%"><feFlood result="color1" flood-color="#444"></feFlood><feConvolveMatrix order="3,3" divisor="1" kernelMatrix="1 0 0 0 1 0 0 0 1" in="SourceAlpha" result="extrude"></feConvolveMatrix><feComposite in="color1" in2="extrude" result="comp-extrude" operator="in"></feComposite><feOffset dx="1.5" dy="1.5" in="comp-extrude" result="offset-extrude"></feOffset><feMerge><feMergeNode in="offset-extrude"></feMergeNode><feMergeNode in="SourceGraphic"></feMergeNode></feMerge></filter></defs><g filter="url(#editing-extrusion)"><g transform="translate(175.94999980926514, 105.4950008392334)"><path d="M13.42-2.03L13.42-2.03Q13.42 1.02 12.11 1.02L12.11 1.02L12.11 1.02Q10.64 1.02 10.64-0.71L10.64-0.71L10.64-0.71Q10.64-1.20 10.68-1.58L10.68-1.58L10.68-1.58Q10.72-1.96 10.72-2.41L10.72-2.41L10.72-2.78L10.72-2.78Q10.49-4.66 9.32-12.11L9.32-12.11L8.65-16.32L8.65-16.32Q8.38-18.01 7.18-28.35L7.18-28.35L7.18-28.35Q5.98-38.80 4.81-47.34L4.81-47.34L4.81-47.34Q3.65-56.02 3.12-56.89L3.12-56.89L3.12-56.89Q3.35-57.30 3.82-57.60L3.82-57.60L3.82-57.60Q4.29-57.90 4.74-57.90L4.74-57.90L4.74-57.90Q5.90-57.90 6.32-57.49L6.32-57.49L6.32-57.49Q6.73-57.07 6.73-56.13L6.73-56.13L6.73-55.46L6.73-55.46Q6.69-55.12 6.69-54.67L6.69-54.67L6.69-54.67Q6.69-54.03 6.73-53.84L6.73-53.84L6.73-53.84Q8.84-31.24 11.73-6.73L11.73-6.73L11.88-6.73L11.88-6.73Q12.18-8.87 12.78-18.95L12.78-18.95L12.78-18.95Q13.46-29.63 13.61-31.51L13.61-31.51L13.61-31.51Q13.80-33.88 14.51-38.27L14.51-38.27L14.51-38.27Q15.26-42.71 15.42-44.52L15.42-44.52L15.68-48.01L15.79-49.59L15.79-49.59Q15.87-50.57 15.87-50.61L15.87-50.61L15.87-50.61Q15.87-50.79 15.90-51.10L15.90-51.10L15.90-51.10Q15.94-51.40 15.98-51.58L15.98-51.58L15.98-51.58Q15.98-51.70 16.11-51.85L16.11-51.85L16.11-51.85Q16.24-52.00 16.43-52.11L16.43-52.11L16.43-52.11Q16.99-52.11 17.31-52.00L17.31-52.00L17.31-52.00Q17.63-51.88 17.82-51.58L17.82-51.58L17.82-51.58Q18.01-51.28 18.08-51.06L18.08-51.06L18.08-51.06Q18.16-50.83 18.23-50.42L18.23-50.42L18.35-49.74L18.35-49.74Q19.14-45.76 21.68-28.54L21.68-28.54L21.68-28.54Q24.21-11.32 24.74-5.87L24.74-5.87L24.96-5.71L27.82-36.88L27.82-36.88Q28.05-40.04 28.80-46.13L28.80-46.13L28.80-46.13Q29.59-52.86 29.59-56.51L29.59-56.51L29.59-56.51Q29.59-56.92 29.55-57.26L29.55-57.26L29.55-57.26Q29.51-57.60 29.51-57.98L29.51-57.98L29.51-57.98Q29.51-58.92 29.95-59.37L29.95-59.37L29.95-59.37Q30.38-59.82 31.51-59.82L31.51-59.82L31.51-59.82Q32.00-59.82 32.48-59.44L32.48-59.44L32.48-59.44Q32.97-59.07 32.97-58.61L32.97-58.61L32.97-58.61Q32.97-57.83 32.15-57.15L32.15-57.15L32.15-57.15Q32.22-56.92 32.22-56.66L32.22-56.66L32.22-56.66Q32.22-56.28 32.07-55.66L32.07-55.66L32.07-55.66Q31.92-55.04 31.92-54.97L31.92-54.97L31.92-54.97Q31.13-48.76 29.85-34.55L29.85-34.55L29.85-34.55Q28.57-20.90 28.27-18.65L28.27-18.65L28.27-18.65Q27.97-15.30 27.63-12.56L27.63-12.56L26.77-4.74L26.77-4.74Q26.73-4.36 26.62-3.31L26.62-3.31L26.62-3.31Q26.36-1.24 26.36-0.86L26.36-0.86L26.36-0.86Q26.36 0.11 26.07 0.56L26.07 0.56L26.07 0.56Q25.79 1.02 24.96 1.02L24.96 1.02L24.96 1.02Q23.76 1.02 23.50 0.08L23.50 0.08L23.50 0.08Q23.27-0.64 23.24-2.07L23.24-2.07L23.12-3.23L23.12-3.23Q20.87-18.23 17.56-45.46L17.56-45.46L17.33-45.61L17.29-45.53L17.26-45.46L17.26-45.46Q14.25-12.07 13.42-3.38L13.42-3.38L13.42-2.03ZM43.31-1.24L43.31-1.24Q43.31-0.19 44.06 0.13L44.06 0.13L44.06 0.13Q44.82 0.45 46.62 0.45L46.62 0.45L49.89 0.45L49.89 0.45Q52.86 0.45 53.65 0.15L53.65 0.15L53.65 0.15Q54.37-0.11 54.37-1.32L54.37-1.32L54.37-1.32Q54.37-2.33 52.94-2.33L52.94-2.33L52.26-2.33L48.99-2.33L45.72-2.29L45.72-5.15L45.72-5.15Q45.72-10.30 45.57-17.37L45.57-17.37L45.57-17.37Q45.42-24.40 45.42-28.80L45.42-28.80L45.42-28.80Q45.42-29.18 45.72-29.18L45.72-29.18L50.12-29.18L50.12-29.18Q50.76-29.18 51.02-29.46L51.02-29.46L51.02-29.46Q51.28-29.74 51.28-30.45L51.28-30.45L51.28-30.45Q51.28-31.58 50.00-31.58L50.00-31.58L50.00-31.58Q48.43-31.58 45.83-31.43L45.83-31.43L45.76-31.43L45.68-31.43L45.68-31.43Q45.53-31.43 45.53-31.58L45.53-31.58L45.53-41.21L45.53-47.75L45.53-47.75Q45.49-50.64 45.49-54.29L45.49-54.29L45.49-54.29Q45.49-54.85 45.66-55.02L45.66-55.02L45.66-55.02Q45.83-55.19 46.40-55.19L46.40-55.19L47.64-55.12L48.88-55.04L48.88-55.04Q49.82-55.04 50.16-55.08L50.16-55.08L50.16-55.08Q50.68-55.12 51.17-55.51L51.17-55.51L51.17-55.51Q51.66-55.91 51.66-56.51L51.66-56.51L51.66-56.51Q51.66-57.56 50.87-57.83L50.87-57.83L50.87-57.83Q50.49-57.94 50.14-57.96L50.14-57.96L50.14-57.96Q49.78-57.98 49.29-57.98L49.29-57.98L44.52-57.98L44.52-57.98Q43.88-57.98 43.50-57.37L43.50-57.37L43.50-57.37Q43.12-56.77 43.12-55.83L43.12-55.83L43.12-55.83Q43.27-51.02 43.27-47.26L43.27-47.26L43.35-15.49L43.27-4.25L43.27-4.10L43.27-4.10Q43.27-3.31 43.31-2.67L43.31-2.67L43.31-1.24ZM75.87-2.56L75.87-2.56Q76.92-2.56 76.92-1.17L76.92-1.17L76.92-1.17Q76.92-0.56 76.66-0.11L76.66-0.11L76.66-0.11Q76.40 0.34 75.98 0.34L75.98 0.34L75.46 0.38L75.46 0.38Q75.20 0.41 74.82 0.41L74.82 0.41L74.82 0.41Q73.20 0.45 68.62 0.45L68.62 0.45L68.62 0.45Q68.05 0.45 67.69-0.02L67.69-0.02L67.69-0.02Q67.34-0.49 67.34-1.17L67.34-1.17L67.38-2.41L67.38-4.25L67.38-4.25Q67.38-8.23 67.00-15.15L67.00-15.15L67.00-15.15Q66.62-22.07 66.62-26.09L66.62-26.09L66.62-26.09Q66.62-28.31 66.59-29.66L66.59-29.66L66.59-29.66Q65.42-29.10 61.89-27.48L61.89-27.48L61.89-27.48Q61.47-27.33 61.13-27.33L61.13-27.33L61.13-27.33Q60.72-27.33 60.31-27.56L60.31-27.56L60.31-27.56Q59.89-27.78 59.89-28.12L59.89-28.12L59.89-28.12Q59.89-28.99 66.55-32.30L66.55-32.30L66.51-33.80L66.25-42.18L66.25-42.18Q65.83-53.46 65.83-58.28L65.83-58.28L65.83-58.28Q65.83-58.69 66.17-58.93L66.17-58.93L66.17-58.93Q66.51-59.18 66.96-59.18L66.96-59.18L66.96-59.18Q68.31-59.18 68.31-58.09L68.31-58.09L68.31-58.09Q68.31-44.18 68.62-36.73L68.62-36.73L68.69-33.35L68.69-33.35Q69.71-33.84 72.90-35.30L72.90-35.30L74.03-35.79L74.03-35.79Q74.37-35.94 74.78-35.94L74.78-35.94L74.78-35.94Q75.23-35.94 75.67-35.72L75.67-35.72L75.67-35.72Q76.10-35.49 76.10-35.19L76.10-35.19L76.10-35.19Q76.10-34.29 68.77-30.72L68.77-30.72L68.99-22.93L68.99-22.93Q68.99-20.04 69.41-12.41L69.41-12.41L69.41-12.41Q69.82-5.15 69.86-2.82L69.86-2.82L69.86-2.82Q69.86-2.67 70.08-2.59L70.08-2.59L70.08-2.59Q70.19-2.56 71.13-2.56L71.13-2.56L75.87-2.56ZM96.40-53.61L96.40-53.61Q99.15-40.00 99.56-38.20L99.56-38.20L99.56-38.20Q100.54-34.10 109.03-3.53L109.03-3.53L109.26-2.41L109.26-2.41Q109.48-1.13 109.56-0.90L109.56-0.90L109.56-0.90Q109.71-0.23 110.16 0.32L110.16 0.32L110.16 0.32Q110.61 0.86 111.18 0.86L111.18 0.86L111.18 0.86Q113.13 0.86 113.13-1.39L113.13-1.39L113.13-1.39Q113.13-2.90 113.32-7.48L113.32-7.48L113.32-7.48Q113.51-12.07 113.51-13.54L113.51-13.54L113.51-13.54Q113.51-19.63 113.62-31.69L113.62-31.69L113.70-49.97L113.70-54.89L113.77-56.13L113.77-56.13Q113.81-56.77 113.81-57.71L113.81-57.71L113.81-57.71Q113.81-59.97 113.21-59.97L113.21-59.97L113.21-59.97Q111.89-59.97 111.63-58.92L111.63-58.92L111.70-48.05L111.70-48.05Q111.70-44.74 111.67-42.11L111.67-42.11L111.59-36.13L111.59-36.13Q111.59-30.68 111.44-22.75L111.44-22.75L111.44-22.75Q111.29-14.78 111.29-9.32L111.29-9.32L111.29-9.32Q111.29-6.65 110.80-5.64L110.80-5.64L110.80-5.64Q109.15-10.64 106.81-20.27L106.81-20.27L106.81-20.27Q101.48-40.19 101.25-41.21L101.25-41.21L101.25-41.21Q100.61-43.95 99.45-49.37L99.45-49.37L99.07-51.13L99.07-51.13Q97.98-56.10 97.79-56.89L97.79-56.89L97.79-56.89Q97.64-57.41 97.08-57.88L97.08-57.88L97.08-57.88Q96.51-58.35 96.02-58.35L96.02-58.35L96.02-58.35Q94.93-58.35 94.45-58.01L94.45-58.01L94.45-58.01Q93.96-57.67 93.96-56.73L93.96-56.73L93.96-56.73Q93.96-56.28 93.99-55.95L93.99-55.95L93.99-55.95Q94.03-55.57 94.03-55.12L94.03-55.12L94.11-47.86L94.11-47.86Q94.14-44.63 94.14-40.57L94.14-40.57L94.14-30.49L94.14-30.49Q94.14-26.02 94.26-17.11L94.26-17.11L94.33-3.68L94.33-3.68Q94.33-1.17 94.18-0.60L94.18-0.60L94.41 0L96.17 0L96.70-0.60L96.70-0.60Q96.70-3.50 96.51-11.58L96.51-11.58L96.51-11.58Q96.33-19.66 96.33-22.56L96.33-22.56L96.33-50.42L96.33-50.42Q96.33-52.64 96.40-53.61L96.40-53.61ZM143.28 0L143.28 0Q142.72 0 142.27-0.38L142.27-0.38L142.27-0.38Q141.82-0.75 141.82-1.32L141.82-1.32L141.82-11.39L141.82-11.39Q141.82-11.99 139.88-12.58L139.88-12.58L139.88-12.58Q137.95-13.16 135.41-13.52L135.41-13.52L135.41-13.52Q132.87-13.87 131.44-13.87L131.44-13.87L131.44-13.87Q131.22-13.87 130.46-10.98L130.46-10.98L130.46-10.98Q129.82-8.46 129.07-5.19L129.07-5.19L129.07-5.19Q128.32-1.92 128.10-0.75L128.10-0.75L128.10-0.75Q127.94-0.19 127.27-0.19L127.27-0.19L127.27-0.19Q126.67-0.19 126.18-0.56L126.18-0.56L126.18-0.56Q125.69-0.94 125.69-1.47L125.69-1.47L125.69-1.47Q125.69-1.54 125.73-1.58L125.73-1.58L125.73-1.69L126.63-5.53L128.21-12.63L129.34-17.71L129.34-17.71Q130.50-22.71 132.27-32.97L132.27-32.97L132.27-32.97Q134.19-43.99 135.05-47.90L135.05-47.90L135.05-47.90Q135.69-50.76 136.44-53.35L136.44-53.35L136.44-53.35Q136.93-55.12 137.57-56.47L137.57-56.47L137.57-56.47Q138.17-57.75 138.66-57.75L138.66-57.75L138.66-57.75Q139.86-57.75 140.43-57.00L140.43-57.00L140.43-57.00Q140.84-56.32 141.65-49.29L141.65-49.29L141.65-49.29Q142.46-42.26 143.06-35.34L143.06-35.34L144.11-22.56L144.11-22.56Q144.11-19.25 144.56-12.52L144.56-12.52L144.56-12.52Q144.98-5.49 144.98-2.48L144.98-2.48L144.98-2.14L144.98-2.14Q144.98-1.13 144.75-0.64L144.75-0.64L144.75-0.64Q144.49 0 143.28 0L143.28 0ZM140.24-14.89L140.24-14.89Q141.74-14.89 141.74-15.64L141.74-15.64L141.74-15.64Q141.74-20.42 141.22-28.69L141.22-28.69L141.22-28.69Q140.69-36.96 140.09-43.27L140.09-43.27L140.09-43.27Q139.79-46.58 139.15-52.22L139.15-52.22L139.00-53.05L139.00-53.05Q138.85-53.61 138.85-53.99L138.85-53.99L138.85-53.99Q138.25-52.26 137.74-49.74L137.74-49.74L137.74-49.74Q137.23-47.22 136.44-42.18L136.44-42.18L136.44-42.18Q134.67-30.87 133.28-24.96L133.28-24.96L133.28-24.96Q133.13-24.10 132.61-22.33L132.61-22.33L132.61-22.33Q132.04-20.38 131.76-19.01L131.76-19.01L131.76-19.01Q131.48-17.63 131.48-16.47L131.48-16.47L131.48-16.02L131.48-16.02Q134.75-14.93 139.26-14.93L139.26-14.93L139.71-14.93L139.71-14.93Q139.94-14.89 140.24-14.89L140.24-14.89Z" fill="#ccc"></path></g></g><style>text {
  font-size: 64px;
  font-family: Arial Black;
  dominant-baseline: central;
  text-anchor: middle;
}</style></svg>