<?xml version="1.0" encoding="utf-8"?>
<svg id="master-artboard" viewBox="0 0 310.4456787109375 323.5939025878906" version="1.1" xmlns="http://www.w3.org/2000/svg" x="0px" y="0px" style="enable-background:new 0 0 1096 780;" width="310.4456787109375px" height="323.5939025878906px"><rect id="ee-background" x="0" y="0" width="310.4456787109375" height="323.5939025878906" style="fill: white; fill-opacity: 0; pointer-events: none;"/>

<path d="M612.6,495.4c-19.3,0-38.9,9.9-53.2,26.7c-6.5-8.4-23.4-26.7-47.9-26.7c-14.2,0-28.5,6.3-42.6,18.6&#10;&#9;&#9;c-14.2,12.4-20.1,30.6-16.9,52.4c7.6,52,63,114.9,105.7,134.4c0.5,0.2,1,0.3,1.5,0.3c0.6,0,1.2-0.1,1.7-0.4&#10;&#9;&#9;c3.6-1.9,88.9-47.7,100.4-129.4c4.5-32.3-4.4-50.4-12.6-59.9C639.8,501,627,495.4,612.6,495.4z M652.8,534.7&#10;&#9;&#9;c-6.9,21.5-44,93.7-51.3,107.8c-5.3-0.5-10.7-1.5-16-2.8c8.8-17.7,43.3-87.6,56.5-125c0.4,0.4,0.8,0.8,1.2,1.2&#10;&#9;&#9;C647.6,521.1,650.8,527.4,652.8,534.7z M638.1,511.2c-12.8,37.2-49.5,111.3-57.5,127.4c-5.1-1.3-9.9-2.8-14-4.1&#10;&#9;&#9;c11.2-17.8,44.5-88.4,57.5-130.2C629.2,505.6,634,508,638.1,511.2z M619.3,503.2c-14.9,48-50,118-57.3,129.7&#10;&#9;&#9;c-1.8-0.6-3.4-1.2-4.8-1.7c30.5-53.4,50-122.8,51.1-126.6c0.2-0.6,0.2-1.2,0-1.7c1.4-0.1,2.8-0.2,4.3-0.2&#10;&#9;&#9;C614.9,502.7,617.1,502.9,619.3,503.2z M580.3,679.3c-7.5-2-29.9-14.4-40.9-20.8c2.6-3.4,5.1-7,7.6-10.7c8.5,3.6,35.4,14.5,52.1,16&#10;&#9;&#9;C592.5,669.9,586,675,580.3,679.3z M490.8,632.3c12.8-7.2,56.7-31.7,77.9-40.5c-3,6.7-6.2,13.4-9.5,20&#10;&#9;&#9;c-13.9,5.5-52.8,27.7-59.7,31.6C496.5,639.8,493.6,636.1,490.8,632.3z M481.3,618.7c8-6.3,54.8-41.7,97-49.5&#10;&#9;&#9;c-2.1,5.3-4.4,10.8-6.8,16.3c-19.8,7.2-70.4,35.4-83.6,42.9C485.6,625.2,483.4,621.9,481.3,618.7z M473.1,604.6&#10;&#9;&#9;c9.8-9.3,59.8-54.5,116.1-64.7c-2.3,6.6-4.9,13.8-7.8,21.3c-44.5,6.3-93.5,43-103.9,51.2C475.9,609.8,474.5,607.2,473.1,604.6z&#10;&#9;&#9; M559,531.7c1.2,0.1,2.3-0.5,3.1-1.4c10.4-13.6,24.3-22.9,38.7-26.2c-1.1,3.8-4.5,15.2-9.8,30.5c0,0-0.1,0-0.1,0&#10;&#9;&#9;c-56.8,9.2-107.7,53.9-120.1,65.5c-0.4-0.7-0.7-1.4-1.1-2.2c5-6.6,42-54.3,82.5-73c2.4,2.9,3.7,5,3.8,5.1&#10;&#9;&#9;C556.7,531,557.8,531.7,559,531.7z M548.9,521.1c-38.6,18.3-72.5,60.2-81.4,71.7c-1-2.3-1.9-4.5-2.7-6.8c0.5-0.4,0.9-0.9,1.1-1.6&#10;&#9;&#9;c17.1-55.1,74.1-69.8,74.7-70c0.3-0.1,0.6-0.2,0.9-0.3C544.3,516.5,546.8,518.9,548.9,521.1z M533.7,508.9c-1.4,0.5-3,1-4.9,1.7&#10;&#9;&#9;c-0.4-0.3-0.8-0.5-1.3-0.5c-1.3-0.1-26.5-1.6-45.4,2.7c9.9-6.7,19.7-10.2,29.3-10.2C519.9,502.7,527.4,505.3,533.7,508.9z&#10;&#9;&#9; M471.5,521.5c0.3,0,0.7-0.1,1-0.3c11.7-6.1,34.8-6.7,46.9-6.5c-6.1,2.9-13,6.8-20.1,11.9c-0.5-0.3-1.1-0.4-1.8-0.2&#10;&#9;&#9;c-1,0.3-22.9,6.4-36.9,13.1C462.7,532.7,466.3,526.7,471.5,521.5z M459.2,545.8c8.3-4.5,22.4-9.3,31.3-12.1&#10;&#9;&#9;c-11.4,10-22.2,23.5-29.2,41.5c-0.9-3.4-1.6-6.7-2.1-10C458.2,558.2,458.2,551.7,459.2,545.8z M502.8,647.2&#10;&#9;&#9;c7.5-4.3,37.1-21.1,52.9-28.5c-10,18.8-21.2,36.2-33.3,48.5C515.6,661.1,509,654.4,502.8,647.2z M559.1,693.3&#10;&#9;&#9;c-9.9-4.8-20.6-12.1-31.3-21.2c2.9-3,5.8-6.2,8.6-9.7c7,4,27.9,15.9,39.1,20.4C567.7,688.2,561.8,691.7,559.1,693.3z M604.1,659.2&#10;&#9;&#9;c-0.1,0-0.2,0-0.3,0c-14.2,0.6-44.1-11.3-54.1-15.5c1.3-2,2.5-4,3.7-6c8.8,3.4,35,12.7,55.9,12.7c1.2,0,2.4,0,3.6-0.1&#10;&#9;&#9;C610,653.4,607.1,656.3,604.1,659.2z M654.1,570.2c-4,28.3-17.7,52.4-33.6,71.5c-0.1,0-0.2,0-0.3,0.1c-3.9,1.1-8.5,1.4-13.4,1.2&#10;&#9;&#9;c8.3-16,37.1-72.3,47.8-99C655.6,551.8,655.4,560.6,654.1,570.2z" transform="matrix(1, 0, 0, 1, -398.03967666625977, -410.4784240722656)"/><path d="M632.9,504l40-75c0,0,7,0,9,5s-43,76.1-43,76.1L632.9,504z" transform="matrix(1, 0, 0, 1, -398.03967666625977, -410.4784240722656)"/><path d="M475.9,514l-40-75c0,0-7,0-9,5s43,76.1,43,76.1L475.9,514z" transform="matrix(1, 0, 0, 1, -398.03967666625977, -410.4784240722656)"/>

</svg>